<?xml version="1.0" encoding="utf-8"?>
<!DOCTYPE svg PUBLIC "-//W3C//DTD SVG 20010904//EN" "http://www.w3.org/TR/2001/REC-SVG-20010904/DTD/svg10.dtd">
<svg version="1.0" xmlns="http://www.w3.org/2000/svg" width="600px" height="500px" viewBox="0 0 600 500" preserveAspectRatio="xMidYMid meet">
 <g fill="#ffffff">
  <path d="M336.3 403.6 c-20.1 -5.1 -35.6 -21.3 -39.9 -41.8 -2.2 -10.2 -1.4 -24.1 1.9 -33.6 l2.5 -7.2 -3.4 0 c-1.9 0 -3.4 -0.4 -3.4 -1 0 -0.5 -1.1 -1.7 -2.5 -2.6 -2.3 -1.5 -2.7 -1.5 -5 0 -4.1 2.7 -4.8 5 -2.4 8 1.7 2.1 2.9 2.6 6.6 2.6 l4.6 0 -0.9 6.3 c-0.5 3.4 -0.8 11.9 -0.7 19 l0.2 12.7 -76.3 0 -76.4 0 -0.6 -2.7 c-0.4 -1.6 -1 -20.8 -1.3 -42.9 l-0.5 -40.1 10.3 -0.7 c5.7 -0.3 10.6 -1.1 10.7 -1.6 0.2 -0.6 1.9 -1 3.8 -1 3.2 0 3.4 0.2 3.4 3.5 0 1.9 -0.5 3.5 -1.1 3.5 -1.7 0 -4.8 4.3 -4.9 6.7 0 2.1 3.3 5.3 5.6 5.3 1.8 0 6.4 -5.1 6.4 -7.1 0 -0.9 -1.1 -2.6 -2.5 -3.7 -2.6 -2 -3.6 -8.2 -1.4 -8.2 1.1 0 23.1 -12.8 26.4 -15.4 1.1 -0.9 -0.6 -0.4 -3.8 1 -3.2 1.4 -8.5 2.8 -11.8 3.1 l-5.9 0.6 0 -3.5 c0 -1.9 0.5 -3.9 1.2 -4.6 1.7 -1.7 -0.6 -6 -3.7 -6.8 -2.6 -0.7 -5.7 1.2 -7.5 4.7 -1.2 2.1 -0.1 5.9 1.6 5.9 0.9 0 1.4 1.2 1.4 3.5 0 3.3 -0.2 3.5 -3.5 3.5 -2.3 0 -3.5 -0.5 -3.5 -1.4 0 -1 -2.4 -1.5 -9.2 -1.9 -5.1 -0.3 -12 -1.4 -15.3 -2.4 -5.2 -1.6 -6 -2.2 -6.3 -4.6 -0.3 -2.2 -0.8 -2.7 -3.3 -2.7 -2.7 0 -2.9 -0.3 -2.9 -3.5 0 -3.2 0.3 -3.5 2.9 -3.5 3.3 0 4.1 -1.4 4.1 -6.8 0 -2 1 -16.2 2.2 -31.4 l2.2 -27.8 165.3 0 165.3 0 0 5.8 c0 5.2 -5.2 70.8 -6.6 83 -0.5 5.1 -0.6 5.2 -3.9 5.2 -3.8 0 -3.7 -1 -0.4 12.6 l2.2 9.1 -2.2 26.4 c-1.3 14.4 -2.7 27.4 -3.3 28.8 -0.5 1.5 -2.1 3.9 -3.6 5.4 -5.1 5.4 -7.6 6.1 -23 6.5 l-14.2 0.4 0.2 -12.3 c0.2 -6.8 -0.1 -15.1 -0.6 -18.4 l-0.8 -6 3.6 -1.3 c6.5 -2.4 8.4 -8.6 3.4 -11.3 -1.5 -0.8 -2.7 -0.8 -4.4 0.2 -1.3 0.7 -2.4 1.6 -2.4 2.1 0 0.4 -1.5 0.8 -3.4 0.8 l-3.4 0 2.4 5.9 c6 14.8 5.2 35.6 -1.8 49.6 -5.8 11.5 -17.2 21.6 -29.7 26.3 -5.5 2.1 -8.7 2.6 -19.1 2.8 -8.1 0.2 -14.3 -0.1 -17.7 -1z m18.2 -52.1 c1.4 -1.3 2.5 -3.4 2.5 -4.7 0 -1.5 2.6 -4.9 7.6 -9.9 4.2 -4.2 7.2 -7.9 6.7 -8.2 -0.5 -0.3 -4.3 2.8 -8.3 6.8 -10.7 10.8 -11.3 10.7 -25.5 -3.5 -7.1 -7.2 -11.3 -10.6 -11.9 -10 -0.7 0.7 2.9 4.9 10.2 12.3 10.6 10.8 11.2 11.6 11.2 15.5 0 3.8 0.2 4.2 2.5 4.2 1.4 0 3.7 -1.1 5 -2.5z m-186.4 -26.2 c2.8 -3.2 2.9 -4 0.8 -6.7 -2.6 -3.3 -4.9 -3.3 -8.3 0 -3.3 3.4 -3.3 5.7 0 8.3 2.8 2.2 4.6 1.8 7.5 -1.6z m40 1.4 c0.9 -0.7 2.1 -2.2 2.7 -3.4 1 -1.8 0.8 -2.6 -1.2 -5 -2.4 -2.7 -2.6 -2.7 -5.3 -1.3 -3.9 2.2 -5.2 6.3 -2.8 9 2 2.3 4.3 2.5 6.6 0.7z m42.4 -1.2 c3 -2.9 3.1 -4.9 0.5 -7.5 -2.6 -2.6 -3.2 -2.5 -6.9 0.6 -3.5 2.9 -3.7 4 -1.5 7.2 2 2.9 4.9 2.8 7.9 -0.3z m85.2 -31.9 c11.5 -3 29.9 -1.8 40 2.5 l4.3 1.8 0 -5.1 c0 -8.6 -4.7 -11.4 -9.9 -5.9 l-2.7 2.9 -14.1 0 c-13.7 -0.1 -14.1 -0.1 -15.2 -2.4 -0.5 -1.2 -1.9 -2.8 -3.1 -3.4 -1.8 -1 -2.6 -0.6 -5.5 2.3 -2.4 2.4 -3.5 4.4 -3.5 6.4 0 1.6 -0.6 3.5 -1.2 4.2 -0.9 0.9 -0.4 0.9 1.7 -0.2 1.7 -0.8 5.8 -2.2 9.2 -3.1z m-124.3 -0.1 c2.9 -2.7 3.3 -5.6 1 -7.9 -2.3 -2.3 -5.2 -1.9 -7.9 1 -3.1 3.3 -3.1 3.9 0 6.9 3 3.1 3.6 3.1 6.9 0z m40.4 0.9 c4.8 -3.3 4.9 -7.9 0.2 -10.4 -1.5 -0.8 -2.5 -0.5 -4.9 1.6 -3.7 3 -3.9 5.6 -0.9 8.4 2.6 2.4 2.8 2.4 5.6 0.4z m44.8 -4 c0.7 -2.9 -1.9 -6.4 -4.8 -6.4 -2 0 -6.8 4.2 -6.8 6 0 0.6 1.1 2.2 2.5 3.6 2.4 2.4 2.6 2.4 5.5 0.9 1.6 -0.8 3.3 -2.7 3.6 -4.1z m121.2 4 c4.8 -3.3 4.9 -7.9 0.2 -10.4 -1.5 -0.8 -2.5 -0.5 -4.9 1.6 -3.6 3 -3.9 5.6 -1.1 8.4 2.4 2.4 2.9 2.4 5.8 0.4z m-203.3 -33.9 c3.8 -3.7 3.4 -5.1 -3 -10.3 -0.9 -0.8 -1.8 -2.7 -2.2 -4.3 -1.2 -6.1 -6.3 -1.6 -6.3 5.6 0 1.2 -0.9 3.4 -2.1 4.9 l-2 2.6 3 0 c1.8 0 4 0.9 5.1 2 2.6 2.6 4.6 2.5 7.5 -0.5z m42 -0.6 c2.3 -2.8 2.4 -3.4 1.2 -5.2 -2.4 -3.6 -4.2 -4.2 -7.1 -2.4 -4.2 2.8 -4.9 5.1 -2.5 8.1 2.7 3.4 5.1 3.3 8.4 -0.5z m41 0.6 c3 -2.9 3.1 -4.9 0.5 -7.5 -2.7 -2.7 -4.2 -2.5 -7.4 0.6 -3.1 3.2 -3.3 4.7 -0.6 7.4 2.6 2.6 4.6 2.5 7.5 -0.5z m42 -0.6 c2.3 -2.8 2.4 -3.4 1.2 -5.2 -2.4 -3.6 -4.2 -4.2 -7.1 -2.4 -4.2 2.8 -4.9 5.1 -2.5 8.1 2.7 3.4 5.1 3.3 8.4 -0.5z m41 0.6 c3 -2.9 3.1 -4.9 0.5 -7.5 -2.6 -2.6 -4.6 -2.5 -7.5 0.5 -3 2.9 -3.1 4.9 -0.5 7.5 2.6 2.6 4.6 2.5 7.5 -0.5z m41.6 -0.5 c3.2 -3.1 3 -5 -0.6 -8 -2 -1.7 -5.7 -0.1 -8.1 3.5 -1.6 2.5 -1.6 2.7 0.6 5 3 3.2 4.5 3.1 8.1 -0.5z m-245.9 -32 c1.8 -1.9 2.8 -3.6 2.4 -4.6 -0.3 -0.9 -0.6 -2.4 -0.6 -3.5 0 -3.1 -5.5 -2.5 -9.1 1 -3.6 3.6 -3.6 5.4 -0.3 8 3.5 2.7 4 2.7 7.6 -0.9z m42.4 -1.5 c1.8 -2.7 0.7 -5.7 -2.6 -7.5 -1.5 -0.8 -2.5 -0.5 -4.9 1.6 -3.8 3.2 -3.9 5.6 -0.5 8.3 3 2.4 5.3 1.7 8 -2.4z m41.1 0.6 c1.9 -2.4 1.5 -4.8 -0.9 -7.1 -2.8 -2.6 -3.4 -2.5 -6.9 0.9 -3.5 3.6 -3.6 4.5 -0.4 7.7 2.2 2.1 2.8 2.3 4.7 1.3 1.3 -0.7 2.8 -1.9 3.5 -2.8z m39.1 2.3 c4.8 -3.3 4.9 -7.9 0.2 -10.4 -1.5 -0.8 -2.5 -0.5 -4.9 1.6 -3.7 3 -3.9 5.6 -0.9 8.4 2.6 2.4 2.8 2.4 5.6 0.4z m43 -1.7 c2.8 -2.6 2.8 -5.1 0 -7.7 -2.8 -2.6 -3.4 -2.5 -6.9 0.9 -3.5 3.6 -3.6 4.5 -0.4 7.7 2.6 2.6 3.4 2.5 7.3 -0.9z m40 1.7 c4.8 -3.3 4.9 -7.9 0.2 -10.4 -1.5 -0.8 -2.5 -0.5 -4.9 1.6 -3.7 3 -3.9 5.6 -0.9 8.4 2.6 2.4 2.8 2.4 5.6 0.4z m43 -1.7 c2.9 -2.7 2.8 -5.1 -0.5 -7.6 -2.3 -1.9 -2.9 -2 -4.7 -0.8 -1.2 0.8 -2.8 2.6 -3.6 4.1 -1.4 2.6 -1.4 2.8 1.3 5.2 3 2.5 3.7 2.4 7.5 -0.9z"/>
  <path d="M85.6 338.4 c-0.3 -0.9 -0.6 -2.9 -0.6 -4.5 0 -1.9 -0.5 -2.9 -1.5 -2.9 -0.9 0 -1.5 -0.9 -1.5 -2.5 0 -1.4 -0.4 -2.5 -1 -2.5 -0.5 0 -1 -1.1 -1 -2.5 0 -1.4 -0.4 -2.5 -1 -2.5 -0.5 0 -1 -1.6 -1 -3.5 0 -3.3 0.2 -3.5 3.5 -3.5 3.1 0 3.5 0.3 3.5 2.5 0 1.4 0.5 2.5 1 2.5 0.6 0 1 1.1 1 2.5 0 1.4 0.5 2.5 1 2.5 0.6 0 1 1.6 1 3.5 0 2.3 0.5 3.5 1.4 3.5 1.7 0 2.6 2.2 2.6 6.1 0 2.6 -0.3 2.9 -3.4 2.9 -2.2 0 -3.6 -0.6 -4 -1.6z"/>
  <path d="M92.1 315.4 c-0.7 -3.1 -1 -7.1 -0.6 -9 0.5 -3.1 0.9 -3.4 4 -3.4 3.4 0 3.5 0.1 3.5 3.8 0 2 0.3 6.1 0.6 9 l0.7 5.2 -3.5 0 c-3.4 0 -3.5 -0.1 -4.7 -5.6z"/>
  <path d="M77 308.3 c0 -5.8 1 -7.3 4.6 -7.3 3 0 3.4 0.3 3.4 2.8 0 5.7 -1 7.2 -4.6 7.2 -3 0 -3.4 -0.3 -3.4 -2.7z"/>
  <path d="M530 261.5 l0 -3.5 5.5 0 5.5 0 0 3.5 0 3.5 -5.5 0 -5.5 0 0 -3.5z"/>
  <path d="M106 252.5 c0 -3.3 0.2 -3.5 3.5 -3.5 3.3 0 3.5 0.2 3.5 3.5 0 3.3 -0.2 3.5 -3.5 3.5 -3.3 0 -3.5 -0.2 -3.5 -3.5z"/>
  <path d="M482 249.5 c0 -3.3 0.2 -3.5 3.5 -3.5 3.3 0 3.5 0.2 3.5 3.5 0 3.3 -0.2 3.5 -3.5 3.5 -3.3 0 -3.5 -0.2 -3.5 -3.5z"/>
  <path d="M527 248.5 c0 -3.3 0.2 -3.5 3.5 -3.5 3.3 0 3.5 0.2 3.5 3.5 0 3.3 -0.2 3.5 -3.5 3.5 -3.3 0 -3.5 -0.2 -3.5 -3.5z"/>
  <path d="M491 240.5 c0 -3.1 0.3 -3.5 2.5 -3.5 1.8 0 2.5 -0.5 2.5 -2 0 -1.6 0.7 -2 3.5 -2 3.3 0 3.5 0.2 3.5 3.5 0 3.1 -0.3 3.5 -2.5 3.5 -1.8 0 -2.5 0.5 -2.5 2 0 1.6 -0.7 2 -3.5 2 -3.3 0 -3.5 -0.2 -3.5 -3.5z"/>
  <path d="M510 220.4 c0 -3.4 0.1 -3.5 3 -2.9 1.9 0.4 3 0.3 3 -0.4 0 -0.6 0.5 -1.1 1 -1.1 1.1 0 1.3 3.9 0.4 6.4 -0.4 1 -1.8 1.6 -4 1.6 -3.2 0 -3.4 -0.2 -3.4 -3.6z"/>
  <path d="M53.6 152.6 c-1.4 -1.2 -4.2 -1.6 -9.9 -1.6 -7.4 0 -8 -0.2 -10.8 -2.9 -2.5 -2.5 -2.9 -3.7 -2.9 -8.4 0 -3.6 -0.5 -5.9 -1.5 -6.7 -1.3 -1.1 -1.5 -6.3 -1.5 -35.7 0 -36.1 0.3 -39.1 4.5 -40.7 0.9 -0.3 34.8 -0.6 75.3 -0.6 l73.7 0 5.3 3 5.2 3 0 42.1 c0 44.2 -0.2 46.6 -4.5 48.3 -0.9 0.3 -30.8 0.9 -66.3 1.2 -57.8 0.5 -64.9 0.4 -66.6 -1z m29.4 -29.4 l4.5 -2.7 -3.2 -0.3 c-1.8 -0.2 -4.1 0.2 -5.2 0.7 -2.5 1.4 -11.8 1.4 -12.6 0.1 -0.3 -0.5 -2.3 -1 -4.3 -1 l-3.7 0.1 2.9 2.3 c6.3 5.2 13.8 5.5 21.6 0.8z m11.3 -18.7 c0 -2.2 -0.7 -5.4 -1.6 -7 -1.6 -2.9 -1.6 -2.7 -1.6 7.5 0.1 10.4 0.1 10.5 1.7 7 0.8 -1.9 1.6 -5.3 1.5 -7.5z m-40.3 0.3 c-0.1 -8.6 -0.2 -9.1 -1.5 -6.8 -1.7 3 -1.9 8.6 -0.4 12.9 0.6 1.7 1.3 3.1 1.5 3.1 0.2 0 0.4 -4.2 0.4 -9.2z m4 -12.9 c0 -1.8 -0.2 -1.9 -1.5 -0.9 -0.8 0.7 -1.5 1.6 -1.5 2.1 0 0.5 0.7 0.9 1.5 0.9 0.9 0 1.5 -0.9 1.5 -2.1z m22 -1.9 c0 -2.5 0.5 -4 1.3 -4 0.6 -0.1 -0.3 -0.7 -2.2 -1.5 -3.9 -1.8 -7.7 -1.9 -11.7 -0.5 -2.7 1 -2.9 1.3 -2.6 5.5 l0.4 4.5 7.4 0 7.4 0 0 -4z m11 3.7 c0 -0.2 -0.9 -1.2 -2 -2.2 -1.9 -1.8 -2 -1.7 -2 0.3 0 1.5 0.6 2.2 2 2.2 1.1 0 2 -0.2 2 -0.3z"/>
 </g>
 <g fill="#ecf2fd">
  <path d="M337.8 404.3 c-1.6 -0.2 -2.8 -0.9 -2.8 -1.4 0 -0.5 -1.3 -0.9 -3 -0.9 -2.5 0 -3 -0.4 -3 -2.5 0 -2.5 0.1 -2.5 3.4 -1.1 1.9 0.8 5.9 1.9 9 2.6 3.6 0.7 5.6 1.6 5.6 2.6 0 1.4 -3 1.6 -9.2 0.7z"/>
  <path d="M357 403.6 c0 -1.3 2.8 -2.6 5.8 -2.6 0.6 0 1.2 0.9 1.2 2 0 1.6 -0.7 2 -3.5 2 -2.3 0 -3.5 -0.5 -3.5 -1.4z"/>
  <path d="M365 401.7 c0 -0.7 2.3 -2 5 -2.9 l5 -1.6 0 2.3 c0 1.5 -0.7 2.5 -2.2 2.9 -3.9 1 -7.8 0.7 -7.8 -0.7z"/>
  <path d="M376 397.3 c0 -0.5 2.8 -2.6 6.1 -4.8 9.6 -6.3 17.6 -17.2 20.9 -28.2 1.9 -6.1 4.4 -5.9 3.7 0.3 -0.7 6.3 0.9 3.5 2.4 -4.3 1 -5.1 1.6 -6.3 3.1 -6.3 1.7 0 1.8 0.5 1.2 4.6 l-0.7 4.7 11.4 -0.5 c12.4 -0.5 14.4 -1.1 20.3 -6.7 l3.8 -3.6 -0.4 4.3 -0.4 4.2 15.8 0 15.7 0 0.7 4.5 c0.7 4.7 -0.1 7 -1.5 4.6 -0.7 -1.1 -2.1 -0.8 -7.2 1.2 -15 6 -37.6 10.9 -57 12.3 -5.2 0.4 -10.4 1.1 -11.6 1.5 -1.9 0.7 -2.3 0.5 -2.3 -1.1 0 -2.8 -2.8 -2.5 -3.2 0.3 -0.2 1.7 -1.1 2.3 -3.5 2.5 -2.9 0.3 -3.3 0.7 -3.3 3.3 0 2.2 -0.5 2.9 -2 2.9 -1.1 0 -2 0.7 -2 1.5 0 0.8 -0.7 1.5 -1.5 1.5 -0.8 0 -1.5 0.5 -1.5 1 0 0.6 -1.6 1 -3.5 1 -1.9 0 -3.5 -0.3 -3.5 -0.7z"/>
  <path d="M319 395.5 c0 -0.8 -0.9 -1.5 -2 -1.5 -1.6 0 -2 -0.7 -2 -3 l0 -3.1 5.5 3.8 c3 2.1 5.4 4.1 5.5 4.6 0 0.4 -1.6 0.7 -3.5 0.7 -2.4 0 -3.5 -0.5 -3.5 -1.5z"/>
  <path d="M348.7 392.3 c-1.5 -1.5 -0.6 -4.2 1.6 -4.6 l2.2 -0.4 -2.2 -0.2 c-2.9 -0.1 -3.1 -3.6 -0.4 -5.1 2.5 -1.3 2.7 -1.3 4.5 0.6 1.6 1.6 2.1 5.9 1 8.8 -0.6 1.6 -5.4 2.2 -6.7 0.9z"/>
  <path d="M266 385.8 c-53.4 -0.9 -82.7 -3 -110.5 -7.8 -8.3 -1.5 -11.1 -1.7 -11.7 -0.8 -1.3 2.3 -2.3 -0.3 -2.6 -7.5 l-0.4 -7.2 77.1 0 77.1 0 1.7 5 c1.8 4.9 1.8 4.9 2.1 1.8 0.4 -4.4 1.9 -4.2 3.9 0.5 0.8 2 3.3 6.3 5.4 9.5 l3.9 5.7 -3 0 c-2.7 0 -3 -0.3 -3 -3 0 -2 -0.5 -3 -1.5 -3 -1.8 0 -1.9 1.2 -0.4 2.7 0.6 0.6 0.9 1.9 0.7 2.9 -0.3 1.8 -1.7 1.9 -38.8 1.2z m36 -10.3 c0 -1.5 -0.6 -2.5 -1.5 -2.5 -1.2 0 -1.3 0.4 -0.3 2.5 0.6 1.4 1.3 2.5 1.5 2.5 0.1 0 0.3 -1.1 0.3 -2.5z"/>
  <path d="M97 362.8 c-0.1 -0.7 -4.4 -3.3 -9.7 -5.8 -34.9 -16.3 -50.5 -38.5 -46.5 -66.1 1.6 -11.1 6 -23.3 16.3 -45.2 13 -27.5 15.1 -33.8 15.6 -47.2 0.8 -18.5 -3 -29.8 -14 -41.2 l-6 -6.3 43.6 0 43.7 0 -0.1 7.3 c0 3.9 -0.4 11 -0.9 15.7 -0.7 6.1 -4.7 49.1 -5 52.8 0 0.1 -1.2 0.2 -2.6 0.2 -1.7 0 -4.2 -1.4 -7 -4 -2.5 -2.3 -5.3 -4 -6.6 -4 -6 0.1 -15.8 7.5 -15.8 12 0 3.1 1.8 6.8 6 12.4 3.5 4.7 4 5.9 3.9 10.7 l0 5.4 -6 2.9 c-3.9 1.8 -6.8 3.9 -8 6 -3.3 5.3 -10.1 23.7 -10.9 29.5 -0.5 3.1 -1.6 7.3 -2.4 9.4 -1.6 3.7 -1.6 3.8 3 15 2.5 6.1 6.3 14.6 8.5 18.7 3.5 6.9 3.9 8.3 3.9 15.3 0 6.2 -0.3 7.7 -1.5 7.7 -0.8 0 -1.5 -0.6 -1.5 -1.2z"/>
  <path d="M295.6 359.4 c-0.9 -6.9 -0.8 -8.4 0.8 -8.4 1.4 0 1.8 1.1 3.2 9.3 0.5 3.2 0.4 3.7 -1.4 3.7 -1.5 0 -2.1 -0.9 -2.6 -4.6z"/>
  <path d="M346 356.3 c0 -3 0.1 -3.1 6.1 -3.7 3.4 -0.4 6.4 -0.4 6.8 -0.1 1.2 1.2 -4.1 4.5 -7.3 4.5 -1.8 0 -3.7 0.5 -4.4 1.2 -0.9 0.9 -1.2 0.5 -1.2 -1.9z"/>
  <path d="M405.4 348.5 c0 -5.6 0.2 -6.5 1.8 -6.5 1.6 0 1.8 0.9 1.8 6.5 0 5.6 -0.2 6.5 -1.8 6.5 -1.6 0 -1.8 -0.9 -1.8 -6.5z"/>
  <path d="M307.7 351.3 c-1.3 -1.2 -0.7 -5.4 0.8 -6 2 -0.7 2.3 -0.3 3.1 3.5 0.6 2.7 0.4 3.2 -1.3 3.2 -1.1 0 -2.3 -0.3 -2.6 -0.7z"/>
  <path d="M314 348.5 c0 -3.2 0.3 -3.6 2.3 -3.3 1.7 0.2 2.2 1 2.2 3.3 0 2.3 -0.5 3.1 -2.2 3.3 -2 0.3 -2.3 -0.1 -2.3 -3.3z"/>
  <path d="M392 348.5 c0 -2.8 0.4 -3.5 1.9 -3.5 1 0 2.2 0.7 2.5 1.6 1 2.6 -0.3 5.4 -2.5 5.4 -1.5 0 -1.9 -0.7 -1.9 -3.5z"/>
  <path d="M295 344.1 c0 -1 0.3 -3.9 0.6 -6.5 0.5 -3.7 1.1 -4.6 2.6 -4.6 2.1 0 2.1 0.5 0.2 10.3 -0.6 3 -3.4 3.7 -3.4 0.8z"/>
  <path d="M449 342.8 c0 -3 1.3 -5.8 2.6 -5.8 0.9 0 1.4 1.2 1.4 3.5 0 2.8 -0.4 3.5 -2 3.5 -1.1 0 -2 -0.6 -2 -1.2z"/>
  <path d="M409.6 339.3 c-0.3 -2.1 -0.6 -5.5 -0.6 -7.5 0 -3.4 0.3 -3.8 2.6 -3.8 2.6 0 4.2 -1.3 6.5 -5.3 1.4 -2.4 -3 -6.8 -6 -6 -1.2 0.3 -2.1 0.9 -2.1 1.4 0 0.5 -1.6 0.9 -3.5 0.9 -1.9 0 -3.5 -0.4 -3.5 -1 0 -0.5 -0.7 -1 -1.5 -1 -0.8 0 -1.5 0.7 -1.5 1.5 0 0.8 0.6 1.5 1.4 1.5 1.5 0 2.6 2.1 2.6 5.1 0 1 0.4 1.9 0.9 1.9 1 0 3.1 7.7 3.1 11.4 0 4.9 -2.6 2.7 -4.4 -3.6 -3.6 -12.9 -13.4 -26.2 -23.4 -31.8 -4.8 -2.7 -5.3 -4 -1.7 -4 1.4 0 2.5 -0.4 2.5 -1 0 -0.5 -0.5 -1 -1.1 -1 -0.6 0 -1 -1.7 -0.9 -4.2 0.4 -7 0.2 -7.6 -3.1 -8.3 -2.4 -0.5 -3.4 -0.3 -4.4 1.2 -4.2 5.8 -3.7 5.5 -10.8 4.8 -5.7 -0.6 -6.7 -1 -6.7 -2.6 0 -1.7 0.5 -1.9 5.4 -1.3 4.8 0.6 5.5 0.4 6.5 -1.5 1.4 -2.6 6.1 -5.1 9.6 -5.1 1.6 0 3.9 1.2 5.7 3.1 2.7 2.7 3 3.5 2.5 7.2 -0.6 4.1 -0.5 4.3 3.8 7 2.3 1.5 4.9 3.4 5.5 4.2 1 1.3 0.8 1.5 -1.2 1.5 -2.1 0 -2.4 0.4 -2 3.4 0.4 3 0.8 3.4 3.8 3.8 3.1 0.4 3.4 0.2 3.4 -2.2 0.1 -2.4 0.2 -2.4 3.5 1.5 1.9 2.2 3.7 4.8 4.1 5.7 0.5 1.6 0.7 1.6 2.5 -0.1 4.7 -4.4 12.5 -2.7 14.7 3 2 5.3 -0.3 10.4 -5.8 12.7 -2.6 1.1 -3.8 2.2 -3.5 3.2 0.2 0.8 0.7 3.2 1.1 5.3 0.5 3.2 0.4 3.7 -1.4 3.7 -1.5 0 -2.1 -0.9 -2.6 -3.7z m-9.6 -25.3 c0 -0.5 -0.7 -1 -1.5 -1 -0.8 0 -1.5 0.5 -1.5 1 0 0.6 0.7 1 1.5 1 0.8 0 1.5 -0.4 1.5 -1z m-13 -13 c0 -1.3 -0.7 -2 -2 -2 -1.3 0 -2 0.7 -2 2 0 1.3 0.7 2 2 2 1.3 0 2 -0.7 2 -2z"/>
  <path d="M291.4 333.2 c0.5 -1.5 0.1 -1.7 -2.9 -1.4 -2.8 0.3 -4 -0.1 -6.5 -2.6 -5.4 -5.5 -3 -14 4.6 -16.1 3.5 -1 9.1 0.9 10 3.4 0.5 1.2 1.5 0.3 4 -3.4 4.2 -6.1 5.4 -7 5.4 -3.7 0 2.2 0.4 2.6 3 2.6 l3 0 -3.9 5.8 c-2.1 3.1 -4.6 7.4 -5.4 9.5 -2 4.7 -3.7 4.8 -3.7 0.2 0 -2.4 0.5 -3.5 1.5 -3.5 0.8 0 1.5 -0.9 1.5 -2 0 -1.7 -0.7 -2 -4.1 -2 -3 0 -4.7 -0.6 -6 -2.1 -1.3 -1.6 -2.2 -1.8 -3.6 -1.1 -3.6 2 -5.4 4.8 -4.8 7.5 0.7 2.6 2.9 3.7 7.8 3.7 2.4 0 2.7 0.4 2.7 3.5 0 2.5 -0.4 3.5 -1.6 3.5 -1 0 -1.3 -0.6 -1 -1.8z m14.6 -17.2 c0 -1.3 -0.7 -2 -2 -2 -1.3 0 -2 0.7 -2 2 0 1.3 0.7 2 2 2 1.3 0 2 -0.7 2 -2z"/>
  <path d="M157.7 330 c-3 -2.4 -4.2 -6.6 -2.8 -10.2 2.1 -5.6 9.1 -9.2 9.1 -4.8 0 1.1 -0.5 2 -1.1 2 -4.3 0 -5.9 9.2 -1.8 10.3 4.2 1.1 7.6 -0.3 8.2 -3.3 0.8 -3.6 -0.2 -7 -1.9 -7 -0.8 0 -1.4 -0.9 -1.4 -2 0 -2.9 3.4 -2.5 5.9 0.6 3.3 4.1 2.8 8.9 -1.3 13 -4 4 -8.9 4.6 -12.9 1.4z"/>
  <path d="M198.9 329.1 c-3.3 -3.3 -3.7 -6.7 -1.4 -11.1 1.9 -3.6 4.7 -5.2 9.3 -5.2 9 0 11.3 12.8 3.2 17.5 -4.2 2.5 -7.7 2.1 -11.1 -1.2z m10.8 -3.7 c1.9 -1.9 1.6 -5.1 -0.8 -7.3 -2.3 -2.1 -3.1 -1.9 -7.2 1.3 -2.3 1.8 -1.5 7.2 1.1 7.9 2.2 0.6 5.3 -0.2 6.9 -1.9z"/>
  <path d="M242.3 331 c-3 -1.2 -5.6 -6.5 -4.8 -9.9 1.2 -5.7 8.2 -9.8 13.5 -8 3 1.1 6 5.3 6 8.4 0 2.9 -3 7.4 -6 9 -3.2 1.7 -5.4 1.8 -8.7 0.5z m8.2 -5.5 c3 -3 3.2 -5.6 0.4 -7.3 -3.1 -2 -7.2 -0.7 -8.8 2.8 -1.2 2.8 -1.1 3.2 1.1 5 3.1 2.6 4.4 2.5 7.3 -0.5z"/>
  <path d="M519 324.5 c0 -7.1 11.7 -22.5 17.2 -22.5 l2.7 0 -5.3 9.3 c-2.9 5 -5.9 10.3 -6.7 11.6 -1.1 1.8 -1.1 2.5 -0.1 2.8 2.7 1 0.9 2.3 -3.3 2.3 -4.5 0 -4.5 0 -4.5 -3.5z"/>
  <path d="M92.6 316.9 c-0.3 -1.7 -0.6 -5.3 -0.6 -8 0 -4.9 0 -4.9 3.4 -4.9 3.1 0 3.4 0.3 4 3.8 0.3 2 0.6 5.6 0.6 8 0 4.1 -0.1 4.2 -3.4 4.2 -3 0 -3.4 -0.4 -4 -3.1z"/>
  <path d="M349.8 314.9 c-2.6 -1.5 -2.3 -4.7 0.5 -5.2 l2.2 -0.4 -2.2 -0.2 c-1.6 -0.1 -2.3 -0.7 -2.3 -2.1 0 -3.4 5.2 -4.6 7.2 -1.6 1.3 1.9 0.8 7.4 -0.8 9 -1.8 1.9 -2.3 1.9 -4.6 0.5z"/>
  <path d="M315 306.1 c0 -2.7 -0.4 -3.1 -2.6 -3.1 -2.4 0 -2.5 -0.2 -1.3 -1.7 0.8 -0.9 3.8 -3.1 6.7 -5 4.4 -2.9 5.2 -3.8 5.2 -6.4 0 -4.6 5.6 -9.9 10.4 -9.9 3.6 0 8.6 3.5 8.6 6 0 0.5 0.7 1 1.5 1 0.8 0 1.5 0.5 1.5 1 0 2.1 -6.1 1 -8.3 -1.5 -1.8 -2.1 -2.8 -2.5 -5.4 -1.9 -1.8 0.4 -3.3 1.2 -3.4 1.8 0 0.6 -0.4 3.2 -0.8 5.9 -0.7 4.5 -0.7 4.7 1.6 4.7 3.3 0 2.9 1.7 -0.9 3.6 -1.8 0.9 -5.4 3.2 -8 5.1 l-4.8 3.5 0 -3.1z m9 -7.6 c0 -0.8 -0.7 -1.5 -1.5 -1.5 -0.8 0 -1.5 0.7 -1.5 1.5 0 0.8 0.7 1.5 1.5 1.5 0.8 0 1.5 -0.7 1.5 -1.5z"/>
  <path d="M371.4 298.6 c-1.8 -0.8 -5.7 -1.9 -8.8 -2.6 -3.9 -0.8 -5.6 -1.6 -5.6 -2.7 0 -1.3 0.9 -1.5 5.8 -0.9 3.1 0.4 5.9 1.1 6 1.6 0.2 0.6 1.7 1 3.3 1 2.4 0 2.9 0.4 2.9 2.5 0 1.4 -0.1 2.5 -0.2 2.5 -0.2 -0.1 -1.7 -0.7 -3.4 -1.4z"/>
  <path d="M160.3 297.5 c-3 -2.1 -3.7 -5.5 -1.1 -5.5 2.5 0 4.8 2.3 4.8 4.9 0 2.5 -0.8 2.6 -3.7 0.6z"/>
  <path d="M167 297 c0 -1.1 0.5 -2 1.1 -2 1.6 0 3.7 -2.5 4.5 -5.4 0.4 -1.7 1.3 -2.6 2.5 -2.6 2.1 0 2.4 1.6 1 5.3 -2.1 5.5 -9.1 9.1 -9.1 4.7z"/>
  <path d="M201.5 296.5 c-5 -4.9 -2.1 -14.3 4.9 -16.1 9.9 -2.5 15.6 9.1 7.9 16.2 -3.6 3.3 -9.5 3.3 -12.8 -0.1z m10.5 -3.5 c2.3 -2.3 2.6 -5.6 0.6 -7.6 -1.9 -1.8 -3.2 -1.8 -6.7 0.3 -3.3 1.9 -3.8 5.2 -1.3 7.7 2.1 2.2 5 2 7.4 -0.4z"/>
  <path d="M243.9 297.7 c-4.9 -3.7 -4.8 -10.9 0.2 -15.1 5.3 -4.5 12 -3.1 14.5 3 2.7 6.4 -2.4 13.4 -9.6 13.4 -1.9 0 -4.2 -0.6 -5.1 -1.3z m7.7 -3.3 c1.1 -0.3 2.5 -1.9 3.2 -3.6 1 -2.7 0.9 -3.3 -1.1 -4.9 -1.4 -1.3 -3 -1.7 -4.7 -1.3 -1.4 0.3 -2.5 0.6 -2.5 0.7 0 0.1 -0.6 1.2 -1.2 2.4 -1 1.7 -1 2.8 -0.1 4.8 1.1 2.5 2.5 2.9 6.4 1.9z"/>
  <path d="M284.5 296.5 c-2.7 -2.6 -3.4 -8 -1.5 -11.6 1.3 -2.4 6.1 -4.9 9.5 -4.9 3.4 0 8.5 5 8.5 8.4 0 8.8 -10.6 14.1 -16.5 8.1z m10.7 -4.3 c2.3 -3.8 1.3 -6.9 -2.3 -7.7 -5 -1.1 -8.9 5.4 -5.3 8.9 2.4 2.5 5.8 2 7.6 -1.2z"/>
  <path d="M410.2 298.3 c-1.8 -0.7 -4.2 -5.8 -4.2 -8.9 0 -4.1 5.9 -9.4 10.4 -9.4 8.3 0 11.8 10 5.7 16.1 -2.3 2.2 -3.8 2.9 -6.8 2.8 -2.1 0 -4.4 -0.3 -5.1 -0.6z m8.5 -5.5 c2.8 -2.6 2.9 -4.9 0.5 -7.2 -1.3 -1.1 -2.8 -1.4 -4.9 -1 -5.8 1.1 -5.2 10.2 0.6 10.4 0.8 0 2.5 -1 3.8 -2.2z"/>
  <path d="M335 295 c0 -1.6 0.7 -2 3.5 -2 4 0 4.9 2.4 1.3 3.4 -3.8 1 -4.8 0.7 -4.8 -1.4z"/>
  <path d="M157 289.1 c0 -1.1 1.1 -3.3 2.5 -4.8 l2.4 -2.8 0.1 3.2 c0 4.4 -0.9 6.3 -3.1 6.3 -1.2 0 -1.9 -0.7 -1.9 -1.9z"/>
  <path d="M159 266.5 c0 -0.8 -0.4 -1.5 -1 -1.5 -0.5 0 -1 -0.4 -1 -1 0 -0.5 0.8 -1 1.8 -1 1.4 0 1.7 -0.7 1.4 -4.3 -0.7 -8.2 7.5 -14 14.6 -10.3 2.5 1.3 4.2 3.4 4.2 5.2 0 1.2 -5 0.2 -5.8 -1.1 -0.6 -1.2 -1.8 -1.4 -5 -0.9 -4.2 0.7 -4.2 0.7 -4.2 5 0 2.4 0.5 4.4 1 4.4 0.6 0 1 1.6 1 3.5 0 3.3 -0.2 3.5 -3.5 3.5 -2.4 0 -3.5 -0.5 -3.5 -1.5z"/>
  <path d="M205.8 265.4 c-1.6 -0.8 -2.8 -1.9 -2.8 -2.5 0 -0.6 -0.7 -0.9 -1.5 -0.5 -0.9 0.3 -1.5 0 -1.5 -0.9 0 -2.1 6.9 -2 7.6 0 0.9 2.3 3.3 1.8 6.5 -1.4 3.6 -3.6 3.7 -5.4 0.4 -7.1 -1.9 -1 -2.5 -2.1 -2.5 -4.7 0 -1.8 -0.4 -3.3 -1 -3.3 -0.5 0 -1 -0.7 -1 -1.5 0 -0.8 -0.7 -1.5 -1.5 -1.5 -2.3 0 -1.8 -1.4 1.3 -3.2 2.5 -1.6 2.6 -1.7 0.5 -1.8 -1.2 0 -2.4 -0.4 -2.7 -0.8 -0.3 -0.5 1.6 -0.7 4.3 -0.4 8.4 0.8 12.8 -2.8 14.2 -11.8 0.8 -4.4 0.8 -4.4 0.5 0.9 -0.3 4.8 -0.8 5.9 -4 8.8 -2.2 2 -4.6 3.3 -6.3 3.3 -1.8 0 -2.3 0.3 -1.5 0.8 0.9 0.6 0.7 1.3 -0.8 3 -1.7 1.8 -1.8 2.5 -0.8 4.6 0.6 1.4 1.9 2.8 3 3.2 2 0.6 4.8 5.3 4.8 7.9 0 2.9 -3 7.4 -6 9 -3.6 1.9 -5.7 1.8 -9.2 -0.1z"/>
  <path d="M248.4 266 c-5.3 -2.2 -7 -9.7 -3.4 -14.3 5.9 -7.5 17 -4.3 17 5 0 6.3 -7.9 11.8 -13.6 9.3z m7.1 -4 c1.5 0 2.6 -4.8 1.8 -7.8 -0.6 -2.4 -2.9 -3.2 -5.9 -1.9 -6.1 2.6 -4.8 11.9 1.4 10.1 0.8 -0.2 1.9 -0.4 2.7 -0.4z"/>
  <path d="M289.1 265.6 c-2.5 -1.4 -5 -5.1 -5.1 -7.4 0 -3.2 3.3 -8.1 6.6 -9.7 2.9 -1.3 4.1 -1.4 7 -0.5 3.4 1.2 6.4 5.1 6.4 8.5 0 2.9 -3 7.4 -6 9 -3.5 1.8 -5.7 1.9 -8.9 0.1z m8 -5.5 c1.6 -1.6 2.9 -3.6 2.9 -4.3 0 -1.8 -5.1 -4.7 -7 -4 -4.1 1.5 -5.9 6.3 -3.3 9.1 2.5 2.7 4 2.5 7.4 -0.8z"/>
  <path d="M329 264.2 c-5.4 -5.4 -3.2 -13.7 4.4 -16.2 6.1 -2 11.6 2.1 11.6 8.7 0 4.5 -4.4 9.2 -9.2 10 -3.2 0.5 -4.1 0.1 -6.8 -2.5z m9.2 -2.8 c3.2 -1.2 3.2 -9 -0.1 -9.6 -2.7 -0.6 -6.9 1.5 -7.5 3.6 -1.1 4.4 1.6 8.2 4.9 7 0.6 -0.2 1.7 -0.7 2.7 -1z"/>
  <path d="M371.9 265.5 c-9.8 -5.3 -2.1 -21 8.6 -17.5 7.5 2.5 8.2 12.7 1.2 17 -3.8 2.3 -6.2 2.4 -9.8 0.5z m8.2 -5.5 c2.5 -2.4 2.8 -3.3 1.9 -4.9 -1.9 -3.6 -4.5 -4.3 -7.3 -2.1 -3.5 2.8 -4.2 5.5 -2 7.9 2.5 2.7 4 2.5 7.4 -0.9z"/>
  <path d="M412.1 264.4 c-5.7 -4.8 -3.3 -13.8 4.3 -16.4 11.3 -3.7 16.3 11.9 5.6 17.5 -4.1 2.1 -6.4 1.9 -9.9 -1.1z m7.9 -2.4 c0 -0.5 0.6 -1 1.4 -1 1.6 0 2.9 -4.1 2 -6.3 -0.8 -2.2 -5.6 -4.5 -6.1 -2.9 -0.3 0.6 -1.1 1.2 -1.8 1.2 -1.3 0 -2.5 3 -2.5 6.7 0 1.5 0.7 2.3 2.3 2.6 3.9 0.8 4.7 0.7 4.7 -0.3z"/>
  <path d="M523 262.3 c0 -1.6 1.4 -7.1 3.1 -12.3 1.6 -5.2 3.3 -11.4 3.6 -13.7 0.3 -2.4 0.9 -4.3 1.4 -4.3 0.4 0 2.5 2.7 4.8 6 4.1 6.3 7.5 14.1 8.6 20.3 0.4 2 1.1 3.4 1.6 3.1 0.5 -0.3 0.9 0.1 0.9 0.9 0 1 -2.1 1.6 -8.2 2 -15 1.2 -15.8 1.1 -15.8 -2z"/>
  <path d="M175 260.5 c0 -2.8 0.4 -3.5 2 -3.5 2.3 0 2.7 2.8 0.8 4.9 -1.1 1.1 -0.8 1.2 1.5 0.7 1.6 -0.4 2.7 -0.2 2.7 0.4 0 0.5 -1.6 1 -3.5 1 -3.3 0 -3.5 -0.2 -3.5 -3.5z"/>
  <path d="M128.5 261 c-0.3 -0.5 -1.7 -1 -3.1 -1 -2.2 0 -2.4 -0.4 -2.4 -5 l0 -5 4.5 0 4.5 0 0 4.1 c0 3.2 0.4 4.2 2 4.6 1.1 0.3 2 1.2 2 1.9 0 1.6 -6.5 2 -7.5 0.4z"/>
  <path d="M456 259.8 c0 -3 1.3 -5.8 2.6 -5.8 0.9 0 1.4 1.2 1.4 3.5 0 2.8 -0.4 3.5 -2 3.5 -1.1 0 -2 -0.6 -2 -1.2z"/>
  <path d="M478 257.7 c0 -0.7 -2.5 -30.1 -5.5 -65.4 -3 -35.3 -5.5 -65.1 -5.5 -66.2 0 -2.1 -0.1 -2.1 -57.5 -2.1 -50.4 0 -57.5 -0.2 -57.5 -1.5 0 -0.8 0.4 -1.5 1 -1.5 0.5 0 7.4 -4.8 15.2 -10.7 17.2 -12.8 25 -17.9 36 -23.4 25.7 -13 46.6 -14 69.5 -3.4 14.3 6.6 23.1 13.9 27.4 23 5.1 10.5 3.5 24.7 -4.7 43.4 -2.8 6.3 -2.8 6.2 -0.9 5.5 2.6 -1 1.7 2.6 -1.6 6.4 -4.2 4.8 -5.9 9.1 -5.9 15.1 0 2.7 -0.4 5.3 -1 5.6 -0.5 0.3 -1 -0.1 -1 -1 0 -0.9 -0.4 -1.3 -1 -1 -1.9 1.1 -1.2 13.5 1 18 2.9 5.9 5.3 7.9 17.9 14.5 9.7 5 11.3 5.6 12.1 4.1 0.7 -1.2 0.9 -0.8 1 2 0 4.8 -4.3 11.3 -12 18 -12 10.3 -16.7 14.9 -18.6 18.4 -1.5 2.9 -2.4 3.5 -5.1 3.5 -2 0 -3.3 -0.5 -3.3 -1.3z"/>
  <path d="M198.7 252.3 l1.8 -2.6 -2.9 1.8 c-2.3 1.6 -2.9 1.6 -3.7 0.4 -1.3 -2.1 -1.2 -2.2 3.1 -4.9 2.2 -1.4 4 -3 4 -3.7 0 -0.7 0.5 -1.3 1 -1.3 0.6 0 1 1.6 1 3.5 0 1.9 -0.4 3.5 -1 3.5 -0.5 0 -1 1.4 -1 3 0 2.3 -0.4 3 -2 3 -2 0 -2 -0.1 -0.3 -2.7z"/>
  <path d="M457 247.8 c0 -3 1.3 -5.8 2.6 -5.8 0.9 0 1.4 1.2 1.4 3.5 0 2.8 -0.4 3.5 -2 3.5 -1.1 0 -2 -0.6 -2 -1.2z"/>
  <path d="M458 235.8 c0 -3 1.3 -5.8 2.6 -5.8 0.9 0 1.4 1.2 1.4 3.5 0 2.8 -0.4 3.5 -2 3.5 -1.1 0 -2 -0.6 -2 -1.2z"/>
  <path d="M172 232 c0 -1.2 0.9 -2.2 2.4 -2.6 2.9 -0.7 3.7 -3.1 2.9 -9.5 -0.5 -4.5 -0.4 -4.9 1.5 -4.9 3.2 0 5.2 1.1 5.2 2.7 0 0.9 -0.6 1.3 -1.3 1 -1.1 -0.4 -1.3 0.6 -0.9 4.3 0.4 4.4 0.1 5.2 -2.6 8 -3.5 3.5 -7.2 4 -7.2 1z"/>
  <path d="M206.8 231 c-2.6 -2.7 -3 -3.6 -2.5 -6.8 0.8 -4.7 5.5 -9.2 9.8 -9.2 4.3 0 6.9 1.7 8.5 5.6 1.2 2.9 1.2 3.9 0 6.8 -3 7.1 -10.5 8.8 -15.8 3.6z m9.3 -2.3 c0.9 -0.7 2.1 -2.2 2.8 -3.5 1.1 -2 1 -2.6 -1 -4.3 -1.7 -1.5 -3.1 -1.8 -5.3 -1.3 -3.8 0.8 -3.4 0.4 -3.7 3.4 -0.5 5.8 0 7 2.9 7 1.5 0 3.4 -0.6 4.3 -1.3z"/>
  <path d="M248.5 231.5 c-5.9 -5.8 -1.2 -16.5 7.2 -16.5 4.1 0.1 6.3 1.3 8.1 4.7 4.9 9.2 -8 19.2 -15.3 11.8z m8.9 -2.6 c4.9 -2.2 4.1 -9.9 -1 -9.9 -2.3 0 -6.4 3.9 -6.4 6.1 0 1.8 2.5 4.9 4 4.9 0.5 0 2 -0.5 3.4 -1.1z"/>
  <path d="M290.9 232.7 c-4.9 -3.7 -5.1 -9.7 -0.5 -14.3 4.3 -4.3 9.4 -4.7 13.1 -0.9 5.9 5.8 1.2 16.5 -7.2 16.5 -2.1 0 -4.5 -0.6 -5.4 -1.3z m9 -5.1 c2.6 -2.7 2.3 -6.9 -0.4 -8 -3.2 -1.2 -7.3 0.5 -7.8 3.2 -1.2 6.4 3.9 9.4 8.2 4.8z"/>
  <path d="M331.5 231.5 c-5.9 -5.8 -1.2 -16.5 7.2 -16.5 4.1 0.1 6.3 1.3 8.1 4.7 2.1 3.9 1.4 7.3 -2.2 10.9 -4.3 4.3 -9.4 4.7 -13.1 0.9z m10.1 -2.5 c1.7 0 2.4 -5 1.1 -7.7 -0.6 -1.3 -1.9 -2.3 -3 -2.3 -2.6 0 -6.7 3.8 -6.7 6.1 0 2.7 3 5.1 5.4 4.5 1.2 -0.3 2.6 -0.6 3.2 -0.6z"/>
  <path d="M373.9 232.7 c-4.9 -3.7 -5.1 -9.7 -0.5 -14.3 4.3 -4.3 9.4 -4.7 13.1 -0.9 5.9 5.8 1.2 16.5 -7.2 16.5 -2.1 0 -4.5 -0.6 -5.4 -1.3z m8.8 -4.9 c2.8 -2.6 2.9 -4.9 0.5 -7.2 -1.3 -1.1 -2.8 -1.4 -4.9 -1 -2.6 0.5 -3.2 1.2 -3.8 4 -1.1 6 3.7 8.5 8.2 4.2z"/>
  <path d="M414.8 232 c-3.2 -2.4 -4 -6.5 -2.3 -10.6 2.9 -6.9 10.5 -8.6 15.7 -3.4 2.6 2.7 3 3.6 2.5 6.8 -1.3 7.7 -10.2 11.7 -15.9 7.2z m10.9 -3.4 c0.3 -0.2 0.6 -5.1 0.5 -7.3 -0.3 -4.3 -7.4 -2.6 -10 2.3 -0.9 1.7 -0.7 2.5 0.9 4.3 1.7 1.8 2.7 2.1 5.2 1.5 1.8 -0.3 3.3 -0.7 3.4 -0.8z"/>
  <path d="M164.7 231.2 c-2.3 -2.6 -2.2 -5.2 0.3 -5.2 1.6 0 2 0.7 2 3.5 0 4 -0.1 4.1 -2.3 1.7z"/>
  <path d="M202 231.1 c-1.8 -3.5 -1 -14.1 1.2 -14.1 0.5 0 0.4 0.8 -0.2 1.9 -1.5 2.9 -1.2 9.3 0.6 11.9 0.8 1.2 1.1 2.2 0.5 2.2 -0.6 0 -1.5 -0.9 -2.1 -1.9z"/>
  <path d="M459 223.8 c0 -3 1.3 -5.8 2.6 -5.8 0.9 0 1.4 1.2 1.4 3.5 0 2.8 -0.4 3.5 -2 3.5 -1.1 0 -2 -0.6 -2 -1.2z"/>
  <path d="M166.3 217.5 c3.4 -3 6.7 -3.3 6.7 -0.6 0 2.2 -1.9 3.1 -6.3 3.1 l-3.2 -0.1 2.8 -2.4z"/>
  <path d="M221.1 215.3 c-3.6 -2.4 -8.3 -2.9 -12.5 -1.3 -1.4 0.5 -2.6 0.6 -2.6 0.1 0 -1.4 2.8 -2.1 8.3 -2.1 4 0 5.9 0.6 8.2 2.4 4 3.2 2.9 3.9 -1.4 0.9z"/>
  <path d="M460 211.8 c0 -3 1.3 -5.8 2.6 -5.8 0.9 0 1.4 1.2 1.4 3.5 0 2.8 -0.4 3.5 -2 3.5 -1.1 0 -2 -0.6 -2 -1.2z"/>
  <path d="M461 199.8 c0 -3 1.3 -5.8 2.6 -5.8 0.9 0 1.4 1.2 1.4 3.5 0 2.8 -0.4 3.5 -2 3.5 -1.1 0 -2 -0.6 -2 -1.2z"/>
  <path d="M185 148 c1.1 -1.1 2.2 -3.1 2.6 -4.5 0.9 -3.5 3.4 -3.2 3.4 0.4 0 4.9 -0.9 6.1 -4.6 6.1 -3.4 0 -3.4 0 -1.4 -2z"/>
  <path d="M24.8 128.3 c-7.4 -9.9 -9.3 -17 -9.3 -33.8 0 -15.5 0.9 -19.5 7.2 -31.7 4.3 -8.3 15.2 -19 24.8 -24.3 14.2 -8 33.5 -12.2 50.9 -11.2 22.6 1.3 70.1 19.8 96.6 37.6 13.9 9.3 23.8 17.8 45.7 38.7 10 9.6 18.6 17.4 19.2 17.4 0.6 0 1.1 0.7 1.1 1.5 0 1.3 -4.7 1.5 -36.5 1.5 l-36.5 0 0 -29 c0 -30.6 -0.3 -32.9 -4.7 -34.9 -2.6 -1.2 -145.7 -1.7 -148.7 -0.5 -3.8 1.5 -4.1 4.1 -4.6 39.9 l-0.5 35 -4.7 -6.2z"/>
  <path d="M68.5 121.1 c-3.5 -0.5 -4 -0.9 -3.8 -3.1 0.1 -1.4 0.2 -5.1 0.4 -8.2 0.1 -4.2 0.6 -5.8 1.5 -5.8 0.8 0 1.4 0.6 1.4 1.3 0 0.8 0.2 0.9 0.8 0.1 1.6 -2.5 8.1 -1 8.2 1.8 0 0.4 -0.7 0.5 -1.5 0.2 -1.1 -0.5 -1.5 0.1 -1.5 2 0 1.4 -0.4 2.6 -1 2.6 -0.5 0 -1 -1.1 -1 -2.5 0 -2.9 -1.2 -3.2 -3.4 -0.9 -2.2 2.1 -2 3.4 0.4 3.4 1.1 0 2 0.5 2 1 0 0.6 -0.9 1 -2 1 -2.5 0 -2.6 1.2 -0.2 3.2 2.2 2 7.2 1.5 8.9 -0.8 1.1 -1.6 1.3 -1.3 1.3 1.9 0 3.5 -0.1 3.7 -3.2 3.6 -1.8 -0.1 -5.1 -0.5 -7.3 -0.8z"/>
  <path d="M88 100.1 c0 -2.6 -0.4 -3 -3.2 -3.4 -3.2 -0.4 -3.2 -0.4 0.5 -0.5 3.6 -0.2 3.7 -0.1 3.7 3.3 0 1.9 -0.2 3.5 -0.5 3.5 -0.3 0 -0.5 -1.3 -0.5 -2.9z"/>
  <path d="M65 99 c0 -0.5 2.5 -1 5.5 -1 3 0 5.5 0.5 5.5 1 0 0.6 -2.5 1 -5.5 1 -3 0 -5.5 -0.4 -5.5 -1z"/>
  <path d="M82 99 c0 -0.5 0.9 -1 2 -1 1.1 0 2 0.5 2 1 0 0.6 -0.9 1 -2 1 -1.1 0 -2 -0.4 -2 -1z"/>
  <path d="M67.8 96.3 c1.8 -0.2 4.5 -0.2 6 0 1.5 0.2 0 0.4 -3.3 0.4 -3.3 0 -4.5 -0.2 -2.7 -0.4z"/>
 </g>
 <g fill="#c1e4ff">
  <path d="M333 403.1 c-6.6 -2.2 -13 -5.2 -13 -6.2 0 -0.4 -0.9 -0.9 -2 -1.2 -1.1 -0.3 -2 -1.2 -2 -2.1 0 -0.9 -0.8 -1.6 -1.8 -1.6 -2.5 0 -5.2 -3.1 -5.2 -5.8 0 -1.5 -0.6 -2.2 -1.9 -2.2 -1.1 0 -2.2 -0.8 -2.4 -1.7 -0.3 -1.1 -0.5 -0.7 -0.6 1 0 1.5 -0.6 2.7 -1.1 2.7 -1.6 0 -6.8 -8.7 -9.2 -15.2 -1.5 -4.2 -2.6 -5.8 -3.9 -5.8 -1.1 0 -1.9 -0.4 -1.9 -1 0 -0.5 0.7 -1 1.6 -1 1.2 0 1.4 -0.8 0.8 -4.5 -0.6 -4.1 -0.4 -4.5 1.4 -4.5 1.5 0 2.2 0.8 2.5 2.8 0.3 2.2 0.4 2 0.6 -1 0.1 -2.6 0.6 -3.8 1.6 -3.8 0.9 0 1.6 1.4 2 3.8 1.2 7.2 4.7 16.1 8.4 21.9 7.3 11.3 20.8 20.6 33.7 23.3 3.5 0.7 5.4 1.6 5.4 2.6 0 2 -6.1 1.7 -13 -0.5z"/>
  <path d="M358 403.6 c0 -0.8 2.5 -2 6.6 -3 7.7 -1.9 13 -4.5 19.7 -9.3 l4.7 -3.5 0 3.2 c0 2.3 -0.5 3.3 -2 3.7 -1.1 0.3 -2 0.9 -2 1.4 0 0.5 -0.7 0.9 -1.5 0.9 -0.8 0 -1.5 0.4 -1.5 0.8 0 1.1 -4.6 3.2 -7 3.2 -1.1 0 -2 0.4 -2 0.9 0 1 -8.5 3.1 -12.5 3.1 -1.5 0 -2.5 -0.6 -2.5 -1.4z"/>
  <path d="M348.6 391.4 c-1.8 -4.8 0.8 -11.2 4.1 -10 0.8 0.3 1.6 0.6 1.8 0.6 1.1 0 1.5 7.1 0.6 8.9 -1.4 2.5 -5.6 2.8 -6.5 0.5z"/>
  <path d="M398.9 383.8 c-0.1 -2.4 -0.3 -2.7 -0.6 -1 -0.3 1.7 -1.1 2.2 -3.4 2.2 l-2.9 0 3.9 -5.7 c4.5 -6.7 7.6 -13.9 8.5 -20.3 1.3 -8.8 1.8 -10 3.3 -10 1.3 0 1.5 1.1 1.1 6.8 -0.4 3.9 -0.3 5.7 0.2 4.2 0.4 -1.4 0.8 -3.7 0.9 -5.2 0.1 -2.1 0.6 -2.8 2.1 -2.8 2.2 0 2.4 1.4 1.1 7.3 -0.8 3.3 -0.7 3.7 1 3.7 1 0 1.9 0.5 1.9 1 0 0.6 -0.9 1 -2 1 -1.1 0 -2.3 0.8 -2.6 1.8 -2.3 7.3 -5.3 10.6 -5.5 6 0 -1.3 -0.3 -1.7 -0.6 -1 -0.2 0.6 -1.1 1.2 -1.9 1.2 -0.8 0 -1.4 1 -1.4 2.5 0 1.8 0.5 2.5 2 2.5 1.1 0 2 0.3 2 0.6 0 1.4 -3.4 6.2 -5.1 7.2 -1.7 1.1 -1.9 0.9 -2 -2z"/>
  <path d="M430 364.1 c0 -0.5 2.2 -1.4 4.9 -2.1 5.8 -1.4 11.4 -6.2 13 -11.2 1.3 -4 5.4 -51.5 4.6 -52.8 -0.4 -0.6 0.6 -1 2.1 -1 2.6 0 2.7 0.1 2.1 5 l-0.6 5 3.4 0 c3.1 0 3.5 0.3 3.5 2.5 0 2 0.5 2.5 2.5 2.5 1.6 0 2.5 0.6 2.5 1.5 0 0.8 0.9 1.5 2 1.5 1.6 0 2 0.7 2 3.5 0 3.3 -0.2 3.5 -3.5 3.5 -2.4 0 -3.5 -0.5 -3.5 -1.5 0 -0.8 -0.9 -1.5 -2 -1.5 -1.5 0 -2 -0.7 -2 -2.5 0 -2.1 -0.5 -2.5 -2.8 -2.5 l-2.8 0 -1.6 19.3 c-1.6 19.5 -3.1 25.7 -6.2 25.7 -0.8 0 -1.6 0.8 -1.8 1.8 -0.7 2.7 -15.8 5.8 -15.8 3.3z"/>
  <path d="M347 355.7 c0 -2.4 0.4 -2.7 3.3 -2.7 2.6 0 3.7 -0.6 4.7 -2.5 1.5 -2.8 5 -3.4 5 -0.9 0 3.9 -5.9 8.4 -9.4 7.1 -0.7 -0.3 -1.9 0 -2.5 0.6 -0.8 0.8 -1.1 0.4 -1.1 -1.6z"/>
  <path d="M313 350 c0 -1.1 0.5 -2 1 -2 0.6 0 1 -0.7 1 -1.6 0 -1.9 2 -1.4 3.4 0.8 0.7 1.2 0.6 2.1 -0.3 3.2 -1.9 2.3 -5.1 2 -5.1 -0.4z"/>
  <path d="M342.9 348.5 l-1.6 -3.5 2.8 0 c2.6 0 2.9 0.3 2.9 3.5 0 4.5 -2 4.5 -4.1 0z"/>
  <path d="M385.4 350.6 c-1 -2.6 0.1 -5.1 2.4 -5.4 1.9 -0.3 2.2 0.1 2.2 3.2 0 3 -0.4 3.6 -2 3.6 -1.1 0 -2.3 -0.6 -2.6 -1.4z"/>
  <path d="M391 350 c0 -1.1 0.5 -2 1 -2 0.6 0 1 -0.7 1 -1.6 0 -1.9 2 -1.4 3.4 0.8 0.7 1.2 0.6 2.1 -0.3 3.2 -1.9 2.3 -5.1 2 -5.1 -0.4z"/>
  <path d="M307.4 347.4 c0.3 -0.9 0.6 -1.8 0.6 -2 0 -0.2 0.9 -0.4 2 -0.4 1.3 0 2 0.7 2 2 0 1.5 -0.7 2 -2.6 2 -2 0 -2.5 -0.4 -2 -1.6z"/>
  <path d="M405.6 345.8 c-0.3 -1.3 -0.6 -3.6 -0.6 -5.3 -0.1 -4.8 -4.5 -16 -8.9 -22.4 -3.7 -5.5 -3.9 -6 -2 -6.3 1.8 -0.3 1.5 -0.8 -2 -4.3 -3.7 -3.6 -4.1 -3.7 -4.1 -1.7 0 2.3 -0.1 2.2 -4.5 -0.8 -6.2 -4.3 -14 -7.8 -20.2 -9.1 -6.1 -1.2 -7.4 -3.8 -2 -4 3 -0.1 3.1 -0.1 0.7 -0.9 -3.2 -1 -16.5 -1 -20.5 0 -3 0.8 -3 0.8 0.8 0.9 6.1 0.2 4.6 2.6 -2.8 4.4 -21.6 5.3 -37.2 22.5 -41 45 -0.4 2.3 -1.1 3.7 -2 3.7 -1 0 -1.5 -1.2 -1.6 -3.7 -0.2 -3.1 -0.3 -3.3 -0.6 -1 -0.3 1.9 -1 2.7 -2.5 2.7 -1.8 0 -2 -0.4 -1.3 -4.6 0.3 -2.6 0.9 -5.3 1.2 -6 0.4 -1 -0.4 -1.4 -3 -1.4 -5 0 -6.5 -0.8 -8.3 -4.2 -4.6 -8.9 7.8 -18.3 14.8 -11.3 l2.5 2.5 3.2 -4.9 c3.7 -5.8 12.5 -14.1 18.7 -17.7 3.7 -2.2 4.4 -3.1 4.4 -5.8 0 -8.9 11.7 -12.6 16.5 -5.2 1.6 2.4 2.1 2.5 7.3 2 3.2 -0.3 8.2 -0.2 11.3 0.3 5.6 1 5.7 0.9 8.3 -2.3 3.2 -4 7.4 -5.1 11.5 -2.9 3.3 1.7 4.6 4.8 3.9 9.6 -0.4 2.7 0 3.4 3.3 5.5 5.9 3.7 10.9 8.4 15.4 14.5 l4.1 5.6 2.3 -1.8 c5.6 -4.5 14.1 -0.6 14.1 6.5 0 4.4 -4.1 9.6 -7.7 9.6 -2.3 0 -2.5 0.3 -1.9 3.3 2 9.9 2 10.7 -0.3 10.7 -1.6 0 -2.1 -0.6 -2.2 -2.7 -0.1 -1.6 -0.5 -3.9 -0.9 -5.3 -0.5 -1.5 -0.6 0.3 -0.2 4.3 0.4 5.6 0.2 6.7 -1 6.7 -0.9 0 -1.8 -1 -2.2 -2.2z m-1.7 -22.5 c0 -0.5 -0.4 -1.7 -0.9 -2.8 -0.8 -1.8 -0.9 -1.7 -0.9 0.8 -0.1 1.5 0.4 2.7 0.9 2.7 0.6 0 1 -0.3 0.9 -0.7z m-93.4 -16.3 c1.8 -1.9 1.7 -2 -0.3 -2 -1.5 0 -2.2 0.6 -2.2 2 0 1.1 0.2 2 0.3 2 0.2 0 1.2 -0.9 2.2 -2z m15.5 -10 c0 -0.5 -0.7 -1 -1.5 -1 -0.8 0 -1.5 0.5 -1.5 1 0 0.6 0.7 1 1.5 1 0.8 0 1.5 -0.4 1.5 -1z"/>
  <path d="M158.9 330.5 c-3 -1.6 -5 -6.3 -4.2 -9.4 0.8 -3 3.3 -2.6 3.3 0.4 0 3.6 3.3 6.5 7.5 6.5 3.9 0 4.6 1.4 1.6 3 -2.6 1.4 -5.1 1.2 -8.2 -0.5z"/>
  <path d="M200.2 330.3 c-2.2 -0.9 -4.4 -6.3 -3.7 -9.3 1.3 -6.1 10.1 -10.1 14.6 -6.7 7.2 5.5 3.1 16.8 -6 16.6 -2 0 -4.2 -0.3 -4.9 -0.6z"/>
  <path d="M240.2 328.7 c-7.5 -7.9 4.6 -20.4 13.2 -13.6 3.7 2.9 3.7 9.5 0 13.3 -3.6 3.5 -10.1 3.7 -13.2 0.3z"/>
  <path d="M479 327 c0 -0.5 -1.3 -1 -3 -1 -2.8 0 -3 -0.3 -3 -3.5 0 -3.3 0.2 -3.5 3.5 -3.5 1.9 0 3.5 0.5 3.5 1 0 0.6 1.4 1 3 1 2.8 0 3 0.3 3 3.5 0 3.3 -0.2 3.5 -3.5 3.5 -1.9 0 -3.5 -0.4 -3.5 -1z"/>
  <path d="M170 323.3 c0 -3.2 -0.5 -4.2 -2.9 -5.6 -1.6 -0.9 -3.6 -1.7 -4.5 -1.7 -2.4 0 -1.9 -2.7 0.6 -3.3 5.8 -1.6 12.2 5.4 10.2 11.1 -1.5 4.2 -3.4 3.9 -3.4 -0.5z"/>
  <path d="M349.6 314.4 c-1.6 -1.6 -2.1 -5.9 -1 -8.8 1 -2.5 5.3 -2 6.5 0.8 2.4 5.1 -2.1 11.5 -5.5 8z"/>
  <path d="M93 309 l0 -6 3.5 0 3.5 0 0 6 c0 4.4 -0.4 6 -1.4 6 -1.4 0 -2.5 -2.8 -2.7 -7 0 -2.3 -0.1 -2.3 -0.8 -0.5 -0.5 1.1 -0.5 3.2 0 4.8 0.6 2 0.4 2.7 -0.7 2.7 -1.1 0 -1.4 -1.5 -1.4 -6z"/>
  <path d="M83.3 297.5 c-0.1 -3.7 6.9 -23.6 10.9 -30.8 1.8 -3.2 3.7 -4.8 8.5 -7.2 3.4 -1.6 6.3 -3.7 6.6 -4.5 0.3 -0.8 0.5 0.1 0.6 2 0.1 3.6 -1.2 4.7 -12.1 10.5 -1 0.6 -1.8 2.1 -1.8 3.7 0 1.4 -0.7 3.3 -1.5 4.2 -0.8 0.8 -1.5 2.1 -1.5 2.9 0 2 -4.2 13.1 -5.1 13.5 -0.3 0.2 -0.4 2.3 -0.1 4.7 0.4 4.2 0.3 4.5 -2 4.5 -2.1 0 -2.4 -0.5 -2.5 -3.5z"/>
  <path d="M160.2 297 c-3.4 -3.2 -3.8 -6.8 -1.4 -11.2 1.1 -2.1 1.6 -3.8 1.1 -3.8 -0.5 0 -0.9 -1.1 -0.9 -2.5 0 -2.4 0.2 -2.5 7.3 -2.5 8 0 12 1.4 7.3 2.6 -2.7 0.6 -2.7 0.6 -0.6 2.1 2.7 1.9 4.2 5.8 3.4 8.9 -0.9 3.7 -3.1 2.9 -3.8 -1.5 -0.7 -4.3 -2.5 -5.3 -8.2 -4.4 -3.1 0.5 -3.4 0.9 -3.4 4 0 5.2 1.8 6.4 8.7 5.7 l5.8 -0.5 -2.8 2.5 c-3.6 3.3 -9.3 3.5 -12.5 0.6z"/>
  <path d="M203.3 297.9 c-5.3 -2.7 -5.3 -11.3 0 -15.2 6.4 -4.9 14.3 -1.3 14.1 6.4 -0.2 7 -8 11.8 -14.1 8.8z"/>
  <path d="M243.5 296.5 c-4.8 -4.7 -2.6 -13.3 3.9 -15.5 5.4 -1.8 11.6 2 11.6 7.1 0 9 -9.7 14.2 -15.5 8.4z"/>
  <path d="M286.4 297.9 c-4.8 -2.4 -5.7 -9.2 -1.9 -13.7 4.8 -5.7 13.1 -4.7 15.4 1.9 1.2 3.4 -0.3 8.3 -3.2 10.7 -2.1 1.8 -7.8 2.4 -10.3 1.1z"/>
  <path d="M409.7 297 c-3.3 -2.6 -4.1 -6.2 -2.3 -10.5 2.8 -6.6 11.4 -8.1 15.6 -2.8 3.1 3.9 2.6 7.9 -1.4 11.9 -4 4 -8 4.5 -11.9 1.4z"/>
  <path d="M138 285.1 l0 -4.8 5.3 -0.7 c9 -1 14.7 -0.8 14.7 0.8 0 1.8 -3.1 2.6 -10.2 2.6 l-5.8 0 0 3.5 c0 2.8 -0.4 3.5 -2 3.5 -1.7 0 -2 -0.7 -2 -4.9z"/>
  <path d="M469 284 c0 -0.5 -1.3 -1 -3 -1 -1.6 0 -3 -0.4 -3 -1 0 -0.5 -0.9 -1 -2.1 -1 -4.3 0 -8.9 -3.7 -8.9 -7.1 0 -1.7 0.3 -1.9 1.4 -1 1.1 0.9 1.5 0.4 2 -2.6 0.3 -2.1 0.6 -5.4 0.6 -7.3 0 -5.1 1 -8 2.8 -8 1.3 0 1.4 1.2 0.9 8.4 l-0.7 8.4 3 1.2 c1.7 0.7 3 1.6 3 2.1 0 0.5 1.1 0.9 2.5 0.9 1.4 0 2.5 0.5 2.5 1 0 0.6 1.4 1 3 1 2.8 0 3 0.3 3 3.5 0 3.3 -0.2 3.5 -3.5 3.5 -1.9 0 -3.5 -0.4 -3.5 -1z"/>
  <path d="M170 264.5 c0 -3.1 0.3 -3.5 2.5 -3.5 2.3 0 2.5 -0.4 2.5 -4.4 0 -4.1 -0.2 -4.4 -3.1 -5 -2.6 -0.5 -3.6 -0.1 -5.5 2.1 -2.1 2.4 -2.3 3.4 -1.7 8.2 l0.6 5.4 -10.4 -0.6 c-5.7 -0.4 -14 -1.6 -18.4 -2.8 -8.6 -2.4 -8.6 -2.4 -15.7 -1.3 l-4.8 0.7 0 -3.7 c0 -2 0.3 -3.6 0.8 -3.6 0.4 -0.1 2.6 -0.5 5 -0.9 3.3 -0.7 4.2 -0.5 4.2 0.5 0 0.8 0.7 1.4 1.6 1.4 1.4 0 1.5 -0.7 1 -4.5 -0.7 -4.4 -0.6 -4.5 1.9 -4.5 2 0 2.5 0.4 2.1 1.8 -0.3 0.9 -0.6 3.3 -0.8 5.2 l-0.3 3.4 8.5 2.3 c4.7 1.2 11.3 2.2 14.7 2.2 l6.2 0.1 -0.5 -3.2 c-1.6 -9.6 9.4 -16.1 16.2 -9.7 2.7 2.5 2.7 3.3 0.8 14.2 -0.6 3.4 -0.9 3.7 -4 3.7 -3.2 0 -3.4 -0.2 -3.4 -3.5z"/>
  <path d="M204.5 264 c-1 -1.2 -2.5 -1.8 -3.2 -1.6 -0.8 0.4 -1.3 -0.3 -1.3 -1.8 0 -1.8 1.3 -3 6 -5.5 5.2 -2.8 6 -3.6 6 -6.2 0 -1.6 0.2 -2.9 0.4 -2.9 0.2 0 2 1.4 4 3.2 4.8 4.2 5.1 9.5 0.7 13.9 -3.7 3.6 -9.7 4.1 -12.6 0.9z"/>
  <path d="M246 264 c-2.9 -2.9 -3.4 -6.3 -1.5 -10.3 3.8 -8 15 -7.5 17.1 0.8 0.8 3.1 -1.2 8.1 -4 10 -3 2.2 -9.2 1.9 -11.6 -0.5z"/>
  <path d="M287.2 263.7 c-5.2 -5.5 -0.6 -15.7 7.1 -15.7 8.4 0 11.8 9 5.8 15.1 -3.8 3.8 -9.7 4.1 -12.9 0.6z"/>
  <path d="M329.9 265 c-0.9 -0.5 -2.2 -2.3 -2.9 -3.9 -2.6 -6.4 2.5 -13.1 10 -13.1 8.1 0 10.6 11.8 3.4 16.5 -2.6 1.7 -8 2 -10.5 0.5z"/>
  <path d="M370.2 263.7 c-5.3 -5.6 -0.6 -15.7 7.3 -15.7 4.9 0 8.5 3.6 8.5 8.5 0 8 -10.6 12.8 -15.8 7.2z"/>
  <path d="M412.3 264.5 c-2.7 -1.9 -3.9 -7.5 -2.3 -10.6 4 -7.9 15 -7.8 17.5 0.1 0.9 3 -1.2 8.6 -4 10.4 -3.1 2 -8.4 2.1 -11.2 0.1z"/>
  <path d="M476.5 258.3 c0.4 -5.3 -0.4 -19.2 -2.4 -42.7 -1.7 -19.2 -3.1 -36.2 -3.1 -37.7 0 -4.1 2.8 -3.8 3.4 0.4 0.5 2.9 6.6 73.1 6.6 76.7 0.1 0.9 0.6 0.5 1.5 -1 1.4 -2.4 1.4 -2.3 1.5 2.5 0 8.1 -0.7 9.5 -4.7 9.5 l-3.4 0 0.6 -7.7z"/>
  <path d="M199.1 251.8 c1.2 -2.2 1.2 -2.2 -1.4 -0.5 -3.3 2.2 -3.7 2.1 -3.7 -0.2 0 -1.1 1.4 -2.8 3.4 -4 1.9 -1.2 3.7 -3.3 4 -4.6 0.4 -1.4 1.4 -2.5 2.4 -2.6 4.4 -0.2 6.4 -0.7 7.4 -1.7 0.9 -0.9 0.7 -1.2 -0.9 -1.2 -2.5 0 -8.3 -4.6 -8.3 -6.5 0 -0.7 1.5 0.2 3.4 2.1 2.8 2.8 4.1 3.4 7.7 3.4 5.1 0 10.4 -2.8 11.4 -6 0.4 -1.2 0.9 -1.9 1.1 -1.7 1.1 1.1 -2.2 5.7 -5 7.1 -4 1.9 -9 7.1 -8.2 8.5 0.5 0.7 -0.3 1.1 -1.8 1.1 -1.6 0 -2.6 0.6 -2.6 1.4 0 2.1 -5.9 7.6 -8.1 7.6 -1.7 0 -1.8 -0.3 -0.8 -2.2z"/>
  <path d="M457 250.8 c0 -4.8 1 -7.8 2.6 -7.8 1 0 1.4 1.5 1.4 5.5 0 4.8 -0.2 5.5 -2 5.5 -1.6 0 -2 -0.7 -2 -3.2z"/>
  <path d="M458 238.8 c0 -4.8 1 -7.8 2.6 -7.8 1 0 1.4 1.5 1.4 5.5 0 4.8 -0.2 5.5 -2 5.5 -1.6 0 -2 -0.7 -2 -3.2z"/>
  <path d="M130 233.5 c0 -1.9 -0.4 -3.5 -1 -3.5 -0.5 0 -1 -2.1 -1 -4.7 0 -4.5 0.1 -4.6 1.8 -3 1.6 1.7 1.8 0.9 3.3 -16.7 1.4 -17.6 2 -20.8 3.6 -19.3 0.6 0.7 -2.3 42.3 -3.3 48 -0.8 4.1 -3.4 3.5 -3.4 -0.8z"/>
  <path d="M165.5 231.5 c-3.5 -3.4 -3.5 -9.6 0 -13 1.3 -1.4 2.9 -2.5 3.5 -2.5 1.5 0 1.2 4.6 -0.5 6 -0.8 0.7 -1.5 2 -1.5 3 0 2.1 3.1 5 5.3 5 2.1 0 5.7 -3.5 5.7 -5.5 0 -0.8 0.9 -1.5 2 -1.5 2.3 0 2.5 1.7 0.8 5.5 -2.5 5.6 -11.1 7.3 -15.3 3z"/>
  <path d="M209.3 233 c-2.8 -1.1 -4.3 -4 -4.3 -8.2 0 -4.2 2 -7.2 5.9 -8.8 10.9 -4.5 17.2 11.4 6.6 16.5 -3.7 1.7 -5 1.8 -8.2 0.5z"/>
  <path d="M250.4 232.8 c-5 -2.4 -5.7 -9.3 -1.5 -14 2.4 -2.7 3.6 -3.3 6.9 -3.3 2.5 0 4.8 0.7 6 1.8 7.6 6.9 -2.1 20 -11.4 15.5z"/>
  <path d="M292.3 233 c-4.8 -2 -5.9 -10.4 -1.9 -14.5 6.4 -6.4 15.6 -2.8 15.6 6 0 5.6 -8.4 10.8 -13.7 8.5z"/>
  <path d="M333.4 232.8 c-5 -2.4 -5.7 -9.3 -1.5 -14 2.4 -2.7 3.6 -3.3 7.1 -3.3 5.1 0 8 3 8 8.2 0 4.5 -1.4 6.9 -5 8.8 -3.3 1.7 -5.6 1.8 -8.6 0.3z"/>
  <path d="M375.5 233.1 c-8.9 -3.8 -4.5 -18.1 5.5 -18.1 3.3 0 8 5.3 8 8.9 0 6.1 -8 11.5 -13.5 9.2z"/>
  <path d="M416.5 232.8 c-6.6 -3.8 -5.9 -13 1.2 -16.3 6.5 -3.1 12.3 0.3 12.3 7.3 0 4.4 -1.4 6.8 -5 8.7 -3.4 1.8 -5.8 1.9 -8.5 0.3z"/>
  <path d="M459 226.8 c0 -4.8 1 -7.8 2.6 -7.8 1 0 1.4 1.5 1.4 5.5 0 4.8 -0.2 5.5 -2 5.5 -1.6 0 -2 -0.7 -2 -3.2z"/>
  <path d="M176 220 c0 -0.5 -0.7 -1 -1.5 -1 -0.8 0 -1.5 -0.9 -1.5 -2 0 -1.1 0.7 -2 1.5 -2 0.9 0 1.2 -0.6 0.9 -1.5 -0.8 -2 0.2 -1.9 4.2 0.6 3.4 2.1 4.8 5.4 1.9 4.3 -1.1 -0.5 -1.3 -0.2 -0.9 1 0.5 1.2 0 1.6 -2 1.6 -1.4 0 -2.6 -0.4 -2.6 -1z"/>
  <path d="M202 219.5 c0 -3.9 6.1 -7.5 12.6 -7.5 5.1 0 11.4 3.7 11.4 6.7 0 1.1 -0.6 0.9 -2 -0.9 -4.6 -5.9 -14.4 -6.3 -19.2 -0.8 -1.6 1.6 -2.8 2.8 -2.8 2.5z"/>
  <path d="M460 214.8 c0 -4.8 1 -7.8 2.6 -7.8 1 0 1.4 1.5 1.4 5.5 0 4.8 -0.2 5.5 -2 5.5 -1.6 0 -2 -0.7 -2 -3.2z"/>
  <path d="M461 202.8 c0 -4.8 1 -7.8 2.6 -7.8 1 0 1.4 1.5 1.4 5.5 0 4.8 -0.2 5.5 -2 5.5 -1.6 0 -2 -0.7 -2 -3.2z"/>
  <path d="M502.9 199.3 c-1.1 -0.2 -1.9 -2 -2.3 -4.9 -0.3 -2.4 -1.3 -5.8 -2.2 -7.5 -1.5 -2.9 -1.6 -3 -2.9 -1.2 -0.8 1 -1.5 2.8 -1.5 4.1 0 1.3 -0.6 2.2 -1.5 2.2 -2 0 -5.6 -5.9 -5.3 -8.5 0.2 -1.1 -0.5 -2.8 -1.5 -3.8 -1.5 -1.5 -1.7 -2.7 -1.1 -6.5 1.4 -9.6 5 -14.9 12.6 -18.8 l5.1 -2.6 3.9 2.2 c2.1 1.2 4.4 1.9 5.1 1.7 0.9 -0.4 0.9 -0.6 0 -0.6 -0.7 -0.1 -1.3 -1 -1.3 -2.1 0 -1.5 0.7 -2 2.9 -2 4.8 0 7.7 1.6 13.9 7.7 6 5.9 8.5 10.3 6 10.3 -0.9 0.1 -0.7 0.5 0.5 1.4 1.8 1.4 2.5 8.6 0.8 8.6 -0.5 0 -0.7 0.8 -0.4 1.9 0.5 2 -2.7 9 -5.1 11 -0.8 0.7 -2 1 -2.5 0.6 -0.6 -0.3 -0.9 0 -0.6 0.7 0.7 1.8 -5.9 5.5 -11.3 6.4 l-4.2 0.7 0 -5 c0 -2.7 0.5 -5.4 1.2 -6.1 1.4 -1.4 1.1 -1.7 -2.1 -2.7 -2.3 -0.7 -2.3 -0.6 -1.7 2.9 2 11.5 2 10.6 -0.5 10.5 -1.3 -0.1 -3.1 -0.3 -4 -0.6z m16.5 -20.4 c-2.3 -2.6 -9.4 -7.9 -10.6 -7.9 -1.6 0 -0.8 2.7 1.5 4.8 4.8 4.5 12.8 7.2 9.1 3.1z m-19.4 -6.4 c0 -2.6 -0.3 -3.3 -1.5 -2.9 -0.9 0.4 -1.5 1.9 -1.5 3.5 0 1.9 0.5 2.9 1.5 2.9 1 0 1.5 -1.1 1.5 -3.5z"/>
  <path d="M462 190 c0 -2.9 -0.4 -4 -1.5 -4 -0.8 0 -1.5 -0.7 -1.5 -1.5 0 -1 1.1 -1.5 3.5 -1.5 l3.5 0 0 5.5 c0 4.8 -0.2 5.5 -2 5.5 -1.7 0 -2 -0.7 -2 -4z"/>
  <path d="M135 180.8 c0 -3.9 1.2 -6.8 2.6 -6.8 1 0 1.4 1.3 1.4 4.5 0 3.8 -0.3 4.5 -2 4.5 -1.4 0 -2 -0.7 -2 -2.2z"/>
  <path d="M468.7 153.3 c-2.1 -25.2 -2.1 -25.3 -0.2 -25.3 1.8 0 2.1 1.9 4 24.8 1.8 22.6 1.9 21.2 -0.3 21.2 -1.7 0 -2 -2 -3.5 -20.7z"/>
  <path d="M136 168.8 c0 -3.9 1.2 -6.8 2.6 -6.8 1 0 1.4 1.3 1.4 4.5 0 3.8 -0.3 4.5 -2 4.5 -1.4 0 -2 -0.7 -2 -2.2z"/>
  <path d="M137 156.5 c0 -1.6 -0.6 -2.5 -1.5 -2.5 -0.8 0 -1.5 -0.6 -1.5 -1.4 0 -1.7 4.3 -2.6 12.2 -2.6 4.3 0 6 -0.4 6.4 -1.5 0.4 -0.8 1 -1.5 1.5 -1.5 0.5 0 0.9 0.7 0.9 1.5 0 2.2 26.6 2.2 29.8 -0.1 2.1 -1.5 2.2 -1.4 2.2 1.4 0 2.2 -0.6 3.1 -2.2 3.6 -1.3 0.3 -11.6 0.6 -23 0.6 l-20.8 0 0 2.5 c0 1.8 -0.5 2.5 -2 2.5 -1.5 0 -2 -0.7 -2 -2.5z"/>
  <path d="M467 124 c0 -2.3 0.4 -3 2 -3 2.2 0 2.3 0.3 1.4 3.8 -0.9 3.3 -3.4 2.8 -3.4 -0.8z"/>
  <path d="M66 121 c0 -0.5 -0.9 -1 -2 -1 -1.1 0 -2 -0.7 -2 -1.5 0 -0.8 0.7 -1.5 1.5 -1.5 1.1 0 1.5 -1.2 1.5 -4.5 0 -2.9 0.4 -4.5 1.3 -4.5 0.9 0 0.9 -0.2 0 -0.8 -0.8 -0.5 -0.9 -1.2 -0.2 -2.2 0.8 -1.3 1 -1.3 1.9 0 0.6 0.9 1 1 1 0.3 0 -1.5 6.2 -1.4 7.3 0.1 0.5 0.8 1 0.6 1.7 -0.4 0.7 -1.2 1.2 -1.2 2.2 -0.2 1 1 1 1.5 -0.2 2.2 -1.2 0.8 -1.2 1 -0.1 1 1 0 1.2 1.1 0.9 4.5 -0.5 4.1 -0.4 4.5 1.6 4.5 1.7 0 1.8 0.2 0.6 1 -0.8 0.5 -2.5 1 -3.7 1 -1.4 0 -2.3 0.6 -2.3 1.5 0 1.2 -1.3 1.5 -5.5 1.5 -3 0 -5.5 -0.4 -5.5 -1z m11.5 -4.3 c1.4 -2 1.2 -6.2 -0.5 -8.2 -1.5 -1.8 -4.4 -2 -3.7 -0.2 1.6 4.3 1.6 5.5 0.2 6.7 -0.8 0.7 -1.5 0.8 -1.5 0.2 0 -0.5 -1.1 -1.2 -2.5 -1.4 -1.9 -0.4 -2.5 -0.1 -2.5 1.3 0 3.7 8 5 10.5 1.6z m-5.5 -7.2 c0 -2.7 -1.8 -3.3 -3.8 -1.3 -2 2 -1.4 3.8 1.3 3.8 2 0 2.5 -0.5 2.5 -2.5z"/>
  <path d="M82 113.5 c0 -0.8 0.5 -1.5 1 -1.5 0.6 0 1 0.7 1 1.5 0 0.8 -0.4 1.5 -1 1.5 -0.5 0 -1 -0.7 -1 -1.5z"/>
  <path d="M82 109.5 c0 -0.8 0.5 -1.5 1 -1.5 0.6 0 1 0.7 1 1.5 0 0.8 -0.4 1.5 -1 1.5 -0.5 0 -1 -0.7 -1 -1.5z"/>
  <path d="M88 99.7 l0 -2.7 -15.4 0 c-14.1 0 -15.4 -0.1 -15.1 -1.7 1.5 -7.5 1.4 -7.3 5 -7.3 3.3 0 3.5 0.2 3.5 3.5 l0 3.5 6.9 0 6.8 0 0.7 -4 c0.6 -3.7 0.8 -4 4 -4 l3.3 0 0.7 7.1 c0.4 3.9 0.5 7.3 0.2 7.7 -0.3 0.3 -0.6 -0.7 -0.6 -2.1z"/>
  <path d="M60 98.9 c0 -0.5 5.9 -0.9 13.1 -0.9 8.1 0 12.8 0.4 12.4 1 -0.7 1.2 -25.5 1.1 -25.5 -0.1z"/>
 </g>
 <g fill="#ffcad4">
  <path d="M92.7 343.2 c-6.4 -13.3 -12.7 -29.1 -12.7 -31.7 0 -2.4 2.8 -11.4 4.1 -13.1 0.5 -0.6 0.3 -1.6 -0.4 -2.3 -1 -1.1 -0.5 -1.2 2.3 -0.8 1.9 0.3 5.7 1.2 8.3 1.9 l4.8 1.3 -0.1 6.5 c0 3.6 0.4 15.1 0.9 25.5 1.4 26.7 0.4 28.4 -7.2 12.7z m4.3 -31.2 c0 -5.6 -1.4 -8.3 -2.2 -4.2 -0.4 1.7 1.2 10.2 1.9 10.2 0.2 0 0.3 -2.7 0.3 -6z"/>
  <path d="M160.7 282.3 c-0.3 -0.5 -0.5 -4.7 -0.5 -9.6 0.1 -8.6 0.1 -8.7 2.7 -9.2 1.4 -0.3 5.5 -1.4 9 -2.5 6.3 -1.9 6.3 -1.9 5.8 0.1 -0.5 1.8 -0.2 2 2.6 1.4 6 -1.3 14.8 -5.8 17.2 -8.9 1.4 -1.7 3.1 -3.8 3.8 -4.6 3.5 -4.2 3.8 -4.8 2.6 -5.6 -0.8 -0.4 -0.9 -0.3 -0.5 0.4 0.4 0.7 -0.7 2 -2.8 3.3 -2 1.2 -3.6 2.7 -3.6 3.5 0 2.2 -3.6 3.6 -5 1.9 -1.2 -1.5 0.5 -3 6.3 -5.6 1.5 -0.7 2.7 -2 2.7 -3 0 -2.7 3 -5.1 5.6 -4.5 2.5 0.7 5.4 -0.1 5.4 -1.4 0 -0.5 -1 -1.1 -2.2 -1.3 -1.3 -0.2 -0.1 -0.5 2.5 -0.6 6.6 -0.2 10.5 -2.4 12.8 -7.4 1 -2.3 1.9 -3.4 1.9 -2.4 0 3.3 -3 7.1 -8.2 10.5 -2.8 1.7 -5.6 3.2 -6.4 3.2 -0.7 0 -1.6 0.5 -1.9 1 -0.3 0.6 -0.2 1 0.3 1 1.3 0 4.2 6.8 4.2 10 0 2.5 -0.7 3.3 -4.2 5.1 -2.4 1.2 -7.4 4.3 -11.3 6.8 -10.9 7.3 -26.2 16.1 -28.2 16.1 -1.4 0.1 -1.3 0.4 0.7 1.5 2.4 1.3 2.1 1.4 -4.2 1.5 -3.7 0 -6.9 -0.3 -7.1 -0.7z"/>
  <path d="M107.3 261.3 c-1.7 -0.6 -1.6 -3 0.1 -4 2 -1.2 2.3 -4.7 0.6 -6.8 -1.4 -1.7 -1.2 -1.8 3.2 -1.3 4.6 0.5 4.6 0.5 5 -2.7 0.2 -1.8 -0.2 -3.7 -1 -4.4 -0.8 -0.8 -1.2 -3 -1 -5.9 0.3 -4.3 0.5 -4.7 3.1 -5 1.5 -0.2 2.7 -0.9 2.7 -1.7 0 -0.8 0.8 -3 1.7 -5 1.3 -2.7 2.3 -3.5 4.3 -3.5 3.1 0 5 1.6 5.1 4.5 0 2 0 2 0.9 0 1.1 -2.5 1.3 -1 1 6.1 -0.1 2.9 0.2 5.4 0.8 5.7 1 0.7 -0.4 10 -1.9 12.9 -0.5 1 -0.9 2.5 -0.9 3.3 0 0.8 -0.4 1.5 -1 1.5 -0.5 0 -1 -0.7 -1 -1.5 0 -0.8 -0.7 -1.5 -1.5 -1.5 -0.9 0 -1.5 0.9 -1.5 2.4 0 1.3 0.7 2.6 1.5 3 2.2 0.8 1.8 2.1 -1 3.4 -2.5 1.2 -16.8 1.5 -19.2 0.5z"/>
  <path d="M203.7 233.3 c-2.5 -2.8 -3.9 -7.5 -3.2 -10.9 0.6 -3.4 4 -8.4 5.7 -8.4 0.5 0 -0.2 1.4 -1.6 3.1 -3.4 3.9 -3.6 10.4 -0.5 14.3 2.4 3 2.1 4.6 -0.4 1.9z"/>
  <path d="M211 212.6 c0 -0.9 3.7 -1.2 5.5 -0.5 1.5 0.6 1.1 0.8 -1.7 0.8 -2.1 0.1 -3.8 -0.1 -3.8 -0.3z"/>
 </g>
 <g fill="#d6dbe3">
  <path d="M141 374 c0 -5.5 2.3 -7.1 3.4 -2.5 0.8 3.3 -0.3 7.5 -2 7.5 -1 0 -1.4 -1.4 -1.4 -5z"/>
  <path d="M477.2 369 c-1.8 -2.9 -1.5 -5 0.8 -5 1.6 0 2 0.7 2 3.5 0 3.9 -0.9 4.4 -2.8 1.5z"/>
  <path d="M140 361 c0 -6.1 2.5 -7.1 3.6 -1.5 0.3 2 1.2 3.5 2 3.5 2.2 0 1.6 1.7 -0.8 2.4 -4.4 1.1 -4.8 0.8 -4.8 -4.4z"/>
  <path d="M97 351.5 c0 -2.8 0.4 -3.5 2 -3.5 1.6 0 2 0.7 2 3.5 0 2.8 -0.4 3.5 -2 3.5 -1.6 0 -2 -0.7 -2 -3.5z"/>
  <path d="M139 348.5 c0 -4.9 0.3 -6.5 1.4 -6.5 1.7 0 2.6 3.1 2.6 8.8 0 3.5 -0.3 4.2 -2 4.2 -1.8 0 -2 -0.7 -2 -6.5z"/>
  <path d="M89.8 300.3 c-3.3 -0.8 -2 -3.3 1.7 -3.3 2.8 0 3.5 0.4 3.5 2 0 2 -1.4 2.3 -5.2 1.3z"/>
  <path d="M160 276.5 c0 -2.8 0.4 -3.5 2 -3.5 2.1 0 2.4 1 1.4 4.8 -1 3.6 -3.4 2.7 -3.4 -1.3z"/>
  <path d="M160 267.5 c0 -3.9 1.4 -4.6 3 -1.6 1.6 3.1 1.2 5.1 -1 5.1 -1.6 0 -2 -0.7 -2 -3.5z"/>
  <path d="M162.5 264 c-1.8 -2 -1.7 -2 1.8 -2 3 0 3.7 0.4 3.7 2 0 1.3 -0.7 2 -1.8 2 -1.1 0 -2.7 -0.9 -3.7 -2z"/>
  <path d="M173 262 c0 -1.5 0.7 -2 2.6 -2 2 0 2.5 0.4 2 1.6 -0.3 0.9 -0.6 1.8 -0.6 2 0 0.2 -0.9 0.4 -2 0.4 -1.3 0 -2 -0.7 -2 -2z"/>
  <path d="M111 261 c0 -1.8 0.6 -2 5.5 -1.9 3.1 0.1 6.1 -0.3 6.7 -0.9 1.9 -1.9 4.8 -1.4 4.8 0.8 0 1.6 -0.7 2 -3 2 -1.6 0 -3 0.5 -3 1 0 0.6 -2.5 1 -5.5 1 -4.9 0 -5.5 -0.2 -5.5 -2z"/>
  <path d="M524 258.3 c0 -4.8 1.1 -7.3 3.1 -7.3 2.2 0 2.3 0.9 0.7 6.1 -1.3 4.5 -3.8 5.3 -3.8 1.2z"/>
  <path d="M108.1 250.2 c-4.7 -5.1 -8.2 -10.8 -8.8 -14.6 -0.5 -3.2 -0.3 -3.6 1.6 -3.6 1.3 0 2.1 0.6 2.1 1.6 0 2 3.1 7.6 4.8 8.7 0.6 0.4 1.2 1.3 1.2 2 0 0.7 0.9 1.8 2 2.5 2.1 1.3 2.8 6.2 0.9 6.2 -0.6 0 -2.3 -1.3 -3.8 -2.8z"/>
  <path d="M195.6 249.5 c-0.3 -0.8 0.7 -1.8 2.5 -2.5 1.6 -0.7 2.9 -1.6 2.9 -2 0 -0.4 0.9 -1 2.1 -1.3 1.5 -0.4 1.8 -0.2 1 0.7 -0.6 0.7 -0.7 1.6 -0.3 2 0.4 0.4 0.2 0.7 -0.3 0.6 -2.1 -0.5 -3.6 0.1 -5.4 1.9 -1.5 1.5 -2.1 1.6 -2.5 0.6z"/>
  <path d="M210.3 239.7 c2.3 -1.9 2.2 -2.7 -0.4 -2.7 -3 0 -8.7 -6.3 -9.5 -10.5 -0.4 -2.4 0 -4.5 1.2 -7.1 2.7 -5.5 6.1 -7.5 12.3 -7.6 4.4 0 5.9 0.5 8.9 2.9 4 3.3 5.7 7.9 4.3 11.5 -0.9 2 -1 1.8 -1 -1.7 -0.1 -5.1 -2.3 -8.2 -7.3 -10.5 -10.3 -4.6 -20.7 5.3 -16.1 15.2 2 4.3 6 6.8 11 6.8 2.4 0 4.2 0.4 3.9 0.9 -0.3 0.5 -1.6 0.7 -2.8 0.3 -1.7 -0.4 -2 -0.2 -1.5 1.1 0.4 1 0.2 1.7 -0.2 1.7 -0.5 0 -1.8 0.3 -2.8 0.6 -1.7 0.5 -1.7 0.5 0 -0.9z"/>
  <path d="M220.4 234.7 c1 -0.7 2.7 -2.4 3.7 -3.8 1 -1.3 1.9 -1.9 1.9 -1.3 0 1.4 -4.9 6.4 -6.3 6.4 -0.6 0 -0.3 -0.6 0.7 -1.3z"/>
  <path d="M99 228.6 c0 -2.9 4.1 -8.1 8 -10.1 4.5 -2.3 10.8 -3.4 14.3 -2.4 3.8 1.1 9.7 6.6 9.7 9.1 0 1 -0.3 1.8 -0.8 1.8 -1 0 -4.2 -3.8 -4.2 -5 0 -0.6 -0.9 -1 -2 -1 -1 0 -3 -0.5 -4.3 -1.1 -2 -0.9 -3.4 -0.7 -7.2 1 -2.6 1.2 -5.4 2.1 -6.1 2.1 -0.8 0 -1.4 0.6 -1.4 1.3 0 0.7 -0.6 2.5 -1.2 4 -1.7 3.4 -4.8 3.6 -4.8 0.3z"/>
  <path d="M132 222.9 c0 -2.4 0.4 -3.8 1 -3.4 0.6 0.3 1 2.2 1 4.1 0 1.9 -0.4 3.4 -1 3.4 -0.5 0 -1 -1.8 -1 -4.1z"/>
  <path d="M175 217.4 c0 -1.7 0.4 -2.3 1.3 -1.8 0.8 0.5 0.8 0.2 -0.2 -0.9 -1.2 -1.5 -1.1 -1.7 0.5 -1.7 1.1 0 2.7 0.7 3.7 1.4 2.2 1.7 2.3 4 0.1 3.2 -1.4 -0.5 -1.5 -0.4 -0.4 0.9 1.1 1.3 0.8 1.5 -1.9 1.5 -2.7 0 -3.1 -0.4 -3.1 -2.6z"/>
  <path d="M137.6 155.3 c0.5 -1.7 -1.4 -1.8 -40.6 -1.5 -35.5 0.2 -41.4 0 -43.3 -1.3 -1.9 -1.4 2.3 -1.5 42.6 -1.5 l44.8 0 -0.3 2.7 c-0.2 1.6 -1 2.9 -2 3.1 -1.2 0.2 -1.5 -0.2 -1.2 -1.5z"/>
  <path d="M28.8 133.4 c-0.5 -0.4 -0.8 -15.9 -0.8 -34.4 0 -25.8 0.3 -34 1.3 -34.8 0.9 -0.8 1.1 3.7 0.9 22.1 -0.4 38.9 -0.7 47.9 -1.4 47.1z"/>
  <path d="M59.8 117.3 c1.2 -0.2 3.2 -0.2 4.5 0 1.2 0.2 0.2 0.4 -2.3 0.4 -2.5 0 -3.5 -0.2 -2.2 -0.4z"/>
  <path d="M78.9 116.3 c-0.1 -1 -0.2 -3.3 -0.4 -5 -0.2 -2.3 0.2 -3.3 1.1 -3.3 1 0 1.2 1.1 0.8 4.4 l-0.7 4.5 4.4 0.4 4.4 0.4 -4.7 0.1 c-3.9 0.2 -4.8 -0.1 -4.9 -1.5z"/>
  <path d="M65.4 112 c0 -1.9 0.5 -3.8 1.1 -4.2 0.6 -0.5 0.6 -0.8 -0.2 -0.8 -0.7 0 -1.3 -0.7 -1.3 -1.5 0 -0.8 0.7 -1.5 1.5 -1.5 0.8 0 1.5 0.5 1.5 1 0 0.6 0.5 1 1.1 1 0.5 0 0.8 -0.4 0.5 -0.9 -0.3 -0.5 1 -0.9 2.9 -0.9 1.9 0 3.3 0.4 3 0.8 -0.3 0.4 0.2 1 1 1.4 0.9 0.3 1.5 0 1.5 -0.9 0 -0.8 0.4 -1.5 0.9 -1.5 1.2 0 2.5 2 1.8 2.7 -1 0.9 -8.6 1 -9 0 -0.5 -1.7 -5.6 3.4 -6 6.1 -0.3 2 -0.4 1.8 -0.3 -0.8z"/>
  <path d="M60.7 114.3 c-1.2 -1.1 -0.8 -2.3 0.8 -2.3 0.8 0 1.5 0.7 1.5 1.5 0 1.6 -1.2 2 -2.3 0.8z"/>
  <path d="M82 113.5 c0 -0.8 0.7 -1.5 1.5 -1.5 0.8 0 1.5 0.7 1.5 1.5 0 0.8 -0.7 1.5 -1.5 1.5 -0.8 0 -1.5 -0.7 -1.5 -1.5z"/>
  <path d="M60 109.5 c0 -0.8 0.7 -1.5 1.5 -1.5 0.8 0 1.5 0.7 1.5 1.5 0 0.8 -0.7 1.5 -1.5 1.5 -0.8 0 -1.5 -0.7 -1.5 -1.5z"/>
  <path d="M82 109.5 c0 -0.8 0.7 -1.5 1.5 -1.5 0.8 0 1.5 0.7 1.5 1.5 0 0.8 -0.7 1.5 -1.5 1.5 -0.8 0 -1.5 -0.7 -1.5 -1.5z"/>
  <path d="M60 105.5 c0 -0.8 0.7 -1.5 1.5 -1.5 0.8 0 1.5 0.7 1.5 1.5 0 0.8 -0.7 1.5 -1.5 1.5 -0.8 0 -1.5 -0.7 -1.5 -1.5z"/>
  <path d="M82 105.5 c0 -0.8 0.7 -1.5 1.5 -1.5 0.8 0 1.5 0.7 1.5 1.5 0 0.8 -0.7 1.5 -1.5 1.5 -0.8 0 -1.5 -0.7 -1.5 -1.5z"/>
  <path d="M60 102 c0 -0.5 0.7 -1 1.5 -1 0.8 0 1.5 0.5 1.5 1 0 0.6 -0.7 1 -1.5 1 -0.8 0 -1.5 -0.4 -1.5 -1z"/>
  <path d="M65 102 c0 -0.5 0.7 -1 1.5 -1 0.8 0 1.5 0.5 1.5 1 0 0.6 -0.7 1 -1.5 1 -0.8 0 -1.5 -0.4 -1.5 -1z"/>
  <path d="M69 102 c0 -0.5 0.7 -1 1.5 -1 0.8 0 1.5 0.5 1.5 1 0 0.6 -0.7 1 -1.5 1 -0.8 0 -1.5 -0.4 -1.5 -1z"/>
  <path d="M73 102 c0 -0.5 0.7 -1 1.5 -1 0.8 0 1.5 0.5 1.5 1 0 0.6 -0.7 1 -1.5 1 -0.8 0 -1.5 -0.4 -1.5 -1z"/>
  <path d="M78 102 c0 -0.5 0.7 -1 1.5 -1 0.8 0 1.5 0.5 1.5 1 0 0.6 -0.7 1 -1.5 1 -0.8 0 -1.5 -0.4 -1.5 -1z"/>
  <path d="M82 102 c0 -0.5 0.7 -1 1.5 -1 0.8 0 1.5 0.5 1.5 1 0 0.6 -0.7 1 -1.5 1 -0.8 0 -1.5 -0.4 -1.5 -1z"/>
  <path d="M54 96.5 l0 -3.4 18.5 0 18.5 0 0 3.4 c0 2.4 -0.5 3.5 -1.5 3.5 -0.8 0 -1.5 -0.7 -1.5 -1.5 0 -1.3 -2.4 -1.5 -15.5 -1.5 -13.1 0 -15.5 0.2 -15.5 1.5 0 0.8 -0.7 1.5 -1.5 1.5 -1 0 -1.5 -1.1 -1.5 -3.5z"/>
 </g>
 <g fill="#9df4a6">
  <path d="M319.5 378.9 c-0.5 -1.5 -0.1 -2.8 1.4 -4.2 l2.1 -2.1 0 2.2 c0 1.7 0.6 2.2 2.7 2.2 2.5 0 2.6 0 0.8 2 -2.4 2.7 -6.2 2.6 -7 -0.1z"/>
  <path d="M476.7 367 c-0.6 -1.6 -1.7 -3 -2.4 -3 -0.7 0 -1.3 -0.4 -1.3 -1 0 -0.5 1.6 -1 3.5 -1 3.4 0 3.5 0.1 3.5 4 0 4.7 -1.7 5.2 -3.3 1z"/>
  <path d="M344 349.7 c0 -0.7 -5.2 -6.4 -11.5 -12.7 -9.1 -9.1 -11.5 -12 -11.5 -14.2 0 -3.3 3.7 -6.2 6.6 -5.2 1 0.4 6.9 5.7 13.1 11.7 l11.2 11.1 8.4 -8.2 c8.7 -8.5 11.2 -9.6 14 -6.4 2.3 2.5 2.1 5.5 -0.3 7.7 -2 1.8 -2 1.7 -2 -2.1 l0 -3.9 -7.8 7.8 c-7.4 7.3 -8 7.7 -12.2 7.7 -4.4 0 -4.8 -0.3 -15 -10.5 -5.8 -5.8 -10.9 -10.5 -11.5 -10.5 -0.5 0 4.1 5.1 10.3 11.3 9.6 9.7 11.2 11.7 11.2 14.5 0 2.2 -0.5 3.2 -1.5 3.2 -0.8 0 -1.5 -0.6 -1.5 -1.3z"/>
  <path d="M476.5 326.4 c-8.4 -2.8 -16.5 -8.3 -20.5 -13.8 -2.4 -3.2 -3.1 -5.1 -3 -8.6 0.1 -2.5 -0.8 -7.6 -2 -11.5 -1.1 -3.8 -2.3 -10.6 -2.7 -14.9 l-0.6 -8 3.7 2.2 c4.5 2.7 4.6 2.7 4.6 0.3 0 -1.7 0.6 -1.6 6.8 1.4 3.7 1.9 7.9 3.7 9.3 4 l2.6 0.7 0.6 -8.4 c0.3 -4.6 1.3 -10.8 2.3 -13.8 1.7 -5.4 1.7 -5.4 2.7 -2.7 l0.9 2.8 3 -4.6 c1.7 -2.5 5.6 -6.7 8.6 -9.3 16.2 -13.7 21.7 -20.5 24.9 -31.1 l2 -6.4 2.5 3.4 c5.2 6.9 10.8 22 10.8 29.1 0 2.2 -2.7 12.1 -6.6 23.6 -0.3 1.1 1.9 1.2 12.1 0.7 19.6 -0.9 30 -5.1 41.8 -16.7 4.9 -4.8 7 -6.3 7.4 -5.2 0.3 0.8 0.4 6.5 0.1 12.7 -0.3 9.3 -0.8 12.1 -3 16.8 -5.1 11.2 -15 19.3 -35 28.9 -13.5 6.4 -19.1 11.1 -24.7 20.8 -1.7 2.9 -3.1 5.4 -3.1 5.6 0 0.2 1.6 0.7 3.5 1 1.9 0.4 3.5 1.2 3.5 1.9 0 0.9 -5.7 1.2 -22.8 1.3 -21.4 0.1 -23.2 0 -29.7 -2.2z"/>
  <path d="M192.3 223.5 c-2.9 -1.2 -4.5 -3.5 -2.6 -3.5 1.8 0 9.3 3.4 9.3 4.1 0 1.3 -3 1 -6.7 -0.6z"/>
  <path d="M177.6 220.5 c-0.8 -0.8 -1.7 -1.5 -2.1 -1.5 -0.9 0 -3.5 -2.7 -3.5 -3.5 0 -0.4 1.1 -0.5 2.5 -0.3 2.1 0.4 2.3 0.3 1.4 -0.9 -2.1 -2.4 -0.2 -2.5 4 -0.1 2.2 1.3 4.1 2.9 4.1 3.6 0 1.6 -1.1 1.5 -4 -0.5 -2.4 -1.6 -2.5 -1.6 -0.9 0.3 0.9 1 1.9 2.5 2.3 3.2 1 1.7 -1.9 1.5 -3.8 -0.3z"/>
  <path d="M166.2 206.5 c-1.1 -1.4 -2.9 -2.5 -4.1 -2.5 -1.5 0 -2.1 -0.6 -2.1 -2.2 0 -2.3 0.1 -2.3 14.5 -2.3 14.4 0 14.5 0 14.5 2.3 0 2.1 -0.3 2.2 -10.7 2.2 -10.2 0 -10.5 0.1 -9 1.8 2.1 2.3 2.1 3.2 0.3 3.2 -0.8 0 -2.3 -1.1 -3.4 -2.5z"/>
  <path d="M201 201.4 c0 -2.4 0.3 -2.6 3.1 -2 1.7 0.3 8.3 0.6 14.5 0.6 10.7 0 11.4 0.1 11.4 2 0 1.9 -0.7 2 -14.5 2 l-14.5 0 0 -2.6z"/>
  <path d="M243 202 c0 -1.9 0.6 -2 11.4 -2 6.2 0 12.8 -0.3 14.6 -0.6 2.9 -0.6 3.1 -0.5 2.8 1.7 -0.3 2.4 -0.4 2.4 -14.5 2.7 -13.8 0.2 -14.3 0.2 -14.3 -1.8z"/>
  <path d="M284 201.4 c0 -2.4 0.3 -2.6 3.1 -2 1.7 0.3 8.3 0.6 14.5 0.6 10.7 0 11.4 0.1 11.4 2 0 1.9 -0.7 2 -14.5 2 l-14.5 0 0 -2.6z"/>
  <path d="M325.8 203.5 c-0.3 -0.4 -0.4 -1.4 -0.1 -2.3 0.4 -1.5 2.1 -1.7 14.9 -1.7 13.9 0 14.5 0.1 14.2 2 -0.3 1.9 -1.2 2 -14.4 2.3 -7.7 0.1 -14.3 0 -14.6 -0.3z"/>
  <path d="M367 201.4 c0 -2.4 0.3 -2.6 3.1 -2 1.7 0.3 8.3 0.6 14.5 0.6 10.7 0 11.4 0.1 11.4 2 0 1.9 -0.7 2 -14.5 2 l-14.5 0 0 -2.6z"/>
  <path d="M408.6 203.1 c-0.3 -0.5 -0.4 -1.5 -0.1 -2.3 0.4 -1 3.8 -1.3 15 -1.3 14 0 14.6 0.1 14.3 2 -0.3 1.9 -1.2 2 -14.5 2.3 -8 0.1 -14.4 -0.2 -14.7 -0.7z"/>
  <path d="M157 193 c-2.4 -4.6 -2.4 -5 -0.7 -5 1.2 0 4.7 5.9 4.7 8 0 2.3 -2.1 0.7 -4 -3z"/>
  <path d="M154.3 185.3 c1.5 -0.2 3.7 -0.2 5 0 1.2 0.2 0 0.4 -2.8 0.4 -2.7 0 -3.8 -0.2 -2.2 -0.4z"/>
  <path d="M149.7 153.4 c-1.3 -1.3 -0.7 -2.4 1.1 -2.4 1.3 0 1.8 -0.9 2 -3 0.3 -4.5 2.1 -8.5 3.2 -7.4 0.7 0.7 0.5 2.7 -0.4 5.7 -1.3 4.5 -1.3 4.7 0.6 4.7 1.1 0 1.8 0.5 1.6 1.3 -0.5 1.3 -6.9 2.2 -8.1 1.1z"/>
  <path d="M163.4 141.8 c-1.6 -1.2 -3.1 -2.3 -3.3 -2.5 -0.3 -0.2 0 -0.8 0.5 -1.3 0.6 -0.6 2.2 0 4.4 1.8 4 3.4 2.6 5.2 -1.6 2z"/>
  <path d="M143 139.9 c0 -0.5 1.6 -1.7 3.5 -2.5 4.2 -1.7 4.5 -1.7 4.5 -0.1 0 0.7 -1.5 1.8 -3.3 2.5 -4.1 1.5 -4.7 1.5 -4.7 0.1z"/>
  <path d="M161 132.2 c0 -1 4.5 -3.2 6.5 -3.2 2.3 0 1.7 1.6 -1 2.8 -3 1.4 -5.5 1.5 -5.5 0.4z"/>
  <path d="M147.3 129.6 c-1.5 -1.3 -2.5 -2.8 -2 -3.2 0.8 -0.9 5.9 2.6 6.5 4.4 0.6 1.9 -1.5 1.4 -4.5 -1.2z"/>
  <path d="M64.4 128.7 c-22.1 -8.7 -22.7 -38.2 -0.9 -47.2 4.8 -2.1 13.9 -2.1 18.7 -0.1 19.2 8.1 21.1 34.7 3.2 45.2 -5.3 3.1 -15.9 4.2 -21 2.1z m17.7 -5.5 l3.4 -2.2 -4.7 0 c-5.3 0 -5.8 -0.9 -2.8 -4.7 1.5 -1.9 2 -2.1 2 -0.9 0 1.2 1 1.6 4 1.6 l4 0 0 -10.5 c0 -8.7 -0.3 -10.5 -1.5 -10.5 -1 0 -1.5 -1 -1.5 -2.9 0 -1.7 -0.4 -3.3 -1 -3.6 -0.5 -0.3 -1 0.3 -1 1.4 0 1.2 -0.4 2.1 -1 2.1 -0.5 0 -1 -1.7 -1 -3.9 0 -3.7 -0.2 -3.9 -4.6 -5.1 -4.2 -1.2 -5 -1.1 -10.2 1 -3.1 1.3 -6.8 3.7 -8.1 5.3 -1.4 1.6 -3 3.4 -3.6 4.1 -0.7 0.6 -1.8 3.5 -2.5 6.3 -1.2 4.5 -1.1 5.7 0.4 9.7 1.2 3.1 2.2 4.3 3.2 3.9 0.8 -0.3 1.4 0.1 1.4 1.1 0 1.2 1 1.6 4.5 1.6 3.8 0 4.4 -0.3 3.9 -1.7 -0.4 -1.2 0.1 -0.9 1.5 0.7 3.4 4.1 2.7 5 -3.6 5.1 -3.2 0.1 -4.9 0.4 -3.8 0.6 1.1 0.3 2.2 0.9 2.5 1.3 2.3 3.4 14.9 3.5 20.1 0.2z m11.8 -18.2 c0 -1.9 -0.4 -4.4 -0.9 -5.5 -0.6 -1.4 -0.9 0.4 -0.9 5.5 0 5.1 0.3 6.9 0.9 5.5 0.5 -1.1 0.9 -3.6 0.9 -5.5z"/>
  <path d="M156 126.1 c0 -3.7 1.4 -6.1 2.7 -4.8 0.8 0.9 -0.8 8.7 -1.8 8.7 -0.5 0 -0.9 -1.8 -0.9 -3.9z"/>
  <path d="M106 122 c0 -2.3 0.4 -3 2 -3 1.1 0 2 0.5 2 1 0 1.5 27.7 1.3 28.2 -0.2 0.7 -2.1 4 0 3.6 2.4 -0.3 2.3 -0.5 2.3 -18 2.6 l-17.8 0.2 0 -3z"/>
  <path d="M106.4 105.5 c-0.4 -0.8 -0.4 -2.2 0 -3 0.5 -1.3 5.2 -1.5 34.6 -1.5 l34 0 0 3 c0 2.3 -0.4 3 -2 3 -1.1 0 -2 -0.4 -2 -1 0 -0.6 -10.8 -1 -30.5 -1 -19.7 0 -30.5 0.4 -30.5 1 0 1.6 -3 1.2 -3.6 -0.5z"/>
  <path d="M106.2 87.3 l0.3 -2.8 34 0 c31.6 0 34 0.1 34.3 1.8 0.3 1.6 -1.7 1.7 -32.2 1.7 -21.1 0 -32.6 0.4 -32.6 1 0 0.6 -0.9 1 -2.1 1 -1.6 0 -2 -0.5 -1.7 -2.7z"/>
 </g>
 <g fill="#0077f9">
  <path d="M338.5 405 c-5.8 -1.2 -15.3 -4.9 -16.9 -6.6 -0.8 -0.8 -1.9 -1.4 -2.5 -1.4 -0.6 0 -1.1 -0.3 -1.1 -0.8 0 -0.4 -1 -1.2 -2.2 -1.7 -1.4 -0.6 -2.4 -2.1 -2.6 -3.7 -0.3 -2.1 -0.9 -2.8 -2.6 -2.8 -1.2 0 -2.7 -0.5 -3.4 -1.2 -0.9 -0.9 -1.2 -0.9 -1.2 0 0 0.9 -0.8 0.8 -2.5 -0.4 -2.3 -1.5 -9.4 -14.2 -10.7 -19.2 -0.4 -1.4 -1.4 -2.2 -2.7 -2.2 -1.2 0 -2.1 -0.4 -2.1 -1 0 -0.5 0.9 -1 1.9 -1 1.7 0 1.8 -0.4 1 -3.7 -1.6 -6.9 -1.2 -10.1 1.4 -10.6 l2.2 -0.4 -2.2 -0.2 c-3 -0.1 -3 -3.9 -0.4 -14.3 3.7 -14.6 11.3 -26 22.9 -34.8 7.4 -5.5 19 -10.5 27 -11.6 4.9 -0.6 5.2 -0.5 5.2 1.5 0 1.9 0.6 2.1 5 2.1 4.4 0 5 -0.2 5 -2.1 0 -2 0.4 -2.1 4.3 -1.6 10.2 1.5 19.7 5.7 16.9 7.5 -1.1 0.8 -1.1 1 0.2 1.5 1 0.4 1.6 0.1 1.6 -0.8 0 -0.8 0.4 -1.5 0.8 -1.5 1.3 0 9.6 5.7 11.7 8 1.8 1.9 1.8 2 0 2 -1.6 0 -1.6 0.3 0.5 2.5 2.1 2.3 2.5 2.4 3 0.9 0.5 -1.3 1.4 -0.8 4.4 2.7 8.7 10.1 14.4 28.6 13.3 42.4 -0.4 4 -0.9 7.9 -1.3 8.9 -0.5 1.2 0 1.6 1.7 1.7 2.3 0.1 2.3 0.2 -0.3 1.2 -1.6 0.6 -2.8 1.7 -2.8 2.5 0 2.4 -6.7 15.6 -8.9 17.6 -1.8 1.7 -2.1 1.7 -2.1 0.3 0 -1 -0.5 -1.4 -1.5 -1.1 -0.8 0.4 -1.5 1.1 -1.5 1.8 0 1.5 -7.2 8.6 -8.8 8.6 -0.7 0 -1.2 0.5 -1.2 1 0 0.6 -1.2 1.6 -2.7 2.3 -1.6 0.6 -3.4 1.7 -4.1 2.4 -0.7 0.7 -4.3 2.2 -8 3.4 -7.4 2.4 -26.5 3.5 -33.7 1.9z m26.5 -4.1 c13.5 -3.1 28.5 -15 34.9 -27.8 2.6 -5.1 6 -16.5 6.1 -20.3 0 -1.9 2.9 -0.6 3.3 1.5 0.2 1.2 0.4 -1.4 0.4 -5.8 0 -4.4 -0.2 -7 -0.4 -5.7 -0.4 2 -3.3 3.3 -3.3 1.5 0 -0.5 -0.7 -3.8 -1.4 -7.4 -3.9 -18.1 -18.7 -34.5 -36.4 -39.9 -8.1 -2.5 -23.4 -2.7 -31.3 -0.4 -16.6 5 -30.1 17.5 -36.1 33.9 -3.2 8.6 -3.2 27.3 0 36 5.9 15.9 18 27.7 34.2 33.2 7.2 2.5 21.9 3.1 30 1.2z m-52 -92.5 c0 -1.4 -0.3 -1.4 -1.5 -0.4 -0.8 0.7 -1.5 1.4 -1.5 1.6 0 0.2 0.7 0.4 1.5 0.4 0.8 0 1.5 -0.7 1.5 -1.6z"/>
  <path d="M349.4 391.7 c-0.3 -0.8 -0.4 -3.2 -0.2 -5.3 0.3 -3.4 0.6 -3.9 2.8 -3.9 2.3 0 2.5 0.3 2.5 5 0 4.4 -0.3 5 -2.3 5.3 -1.3 0.2 -2.4 -0.3 -2.8 -1.1z"/>
  <path d="M345 356.5 c0 -1.7 -0.6 -2.5 -1.7 -2.5 -1.3 0 -1.4 -0.3 -0.5 -1.2 0.7 -0.7 1.2 -2.2 1.2 -3.5 0 -1.6 0.6 -2.3 2 -2.3 1.5 0 2 0.7 2 2.5 0 2.2 0.4 2.5 3.4 2.5 2.6 0 3.5 -0.5 4 -2.2 1 -4 0.7 -4.6 -3.4 -5.3 -3.6 -0.6 -4 -1 -4 -3.6 0 -2.7 0.2 -2.8 2 -1.7 1.6 1 2.4 1 4 0 3.2 -1.9 5 -1.5 5 1.3 0 1.8 0.5 2.5 2 2.5 2.4 0 2.6 1.3 0.5 3 -0.8 0.7 -1.5 2.1 -1.5 3.1 0 3.1 -4.3 7.1 -7.8 7.3 -1.7 0.1 -3.7 0.7 -4.4 1.4 -1.9 1.9 -2.8 1.4 -2.8 -1.3z"/>
  <path d="M307.9 350.4 c-2.2 -2.7 0.1 -4.9 5.2 -4.9 3.9 0 4.4 0.3 4.7 2.4 0.2 1.3 -0.2 2.8 -1 3.2 -2.2 1.4 -7.5 1 -8.9 -0.7z"/>
  <path d="M385.9 350.4 c-2.2 -2.7 0.1 -4.9 5.2 -4.9 3.9 0 4.4 0.3 4.7 2.4 0.2 1.3 -0.2 2.8 -1 3.2 -2.2 1.4 -7.5 1 -8.9 -0.7z"/>
  <path d="M349.4 313.7 c-0.3 -0.8 -0.4 -3.2 -0.2 -5.3 0.3 -3.4 0.6 -3.9 2.8 -3.9 2.3 0 2.5 0.3 2.5 5 0 4.4 -0.3 5 -2.3 5.3 -1.3 0.2 -2.4 -0.3 -2.8 -1.1z"/>
  <path d="M476.6 365.4 c-0.5 -1.4 -3.2 -1.6 -23.6 -1.3 -12.7 0.2 -23 0.1 -23 -0.3 0 -0.5 0.9 -0.8 2 -0.8 3 0 9.1 -2.7 11.8 -5.3 4.6 -4.2 5.3 -7.2 7.3 -30 1 -12.2 2 -23.3 2.1 -24.7 0.3 -2.2 0.7 -1.8 3.5 3.1 4.8 8.5 12.7 14.3 24.3 18 6.3 1.9 7.7 4.3 3.1 5.2 -2.7 0.6 -3.2 1.3 -4.7 6.4 -1.4 4.7 -1.6 8.2 -1 18.5 0.6 11.7 -0.1 15.7 -1.8 11.2z"/>
  <path d="M104 353.1 c-6.9 -2.1 -6.7 -1.4 -6.9 -23.5 -0.1 -11.1 -0.4 -22 -0.7 -24.3 -0.6 -3.9 -0.8 -4.2 -4.6 -4.8 -2.1 -0.4 -5 -1.7 -6.4 -2.8 l-2.5 -2.2 4 -10.5 c7.6 -20.2 8.6 -21.8 17.7 -26.3 2.8 -1.4 3.5 -1.4 7.7 0.1 4.4 1.6 5 1.6 9.7 -0.1 2.8 -1 5.5 -1.5 6 -1.2 0.6 0.4 1 -0.7 1 -2.4 0 -1.7 0.5 -3.1 1 -3.1 0.6 0 1 1.5 1 3.3 0 3.2 0.2 3.4 5.8 5 3.1 0.8 7.3 1.8 9.2 2.1 1.9 0.3 5.2 0.8 7.3 1.1 2.3 0.4 3.7 1.1 3.7 2 0 1.9 -7.4 2 -15.3 0.1 -5.7 -1.3 -5.8 -1.3 -7.4 1.1 -2.4 3.6 -2.1 8.2 0.6 10.5 1.8 1.3 4 1.8 9.2 1.8 5.2 0 6.9 0.3 6.9 1.4 0 1.5 -3 2.6 -7 2.6 l-2.5 0 0.3 32.8 0.3 32.7 -11.4 2.8 c-11.3 2.7 -21.5 3.3 -26.7 1.8z m-12 -62.6 c0 -3 -0.2 -5.5 -0.4 -5.5 -0.2 0 -1.1 2.1 -2 4.7 -1.3 3.7 -1.3 4.8 -0.4 5.5 2.4 1.5 2.8 0.8 2.8 -4.7z"/>
  <path d="M161 331.3 c-6.5 -2.4 -8.1 -10.3 -3.1 -15.4 5 -5 13.9 -3 15.5 3.6 1.7 6.6 -6.1 14.1 -12.4 11.8z m7.3 -7.3 c0.8 -1.1 1.2 -3.2 0.9 -4.5 -1 -5.4 -10.2 -1.3 -10.2 4.6 0 4.6 6.1 4.5 9.3 -0.1z"/>
  <path d="M160.7 296.8 c-3.5 -3.2 -4 -6.7 -1.8 -11.1 l1.9 -3.7 -2.4 0 c-1.7 0 -2.4 -0.6 -2.4 -2 0 -1.1 0.6 -2 1.4 -2 0.8 0 1.7 -0.7 2 -1.6 0.9 -2.5 0.7 -7.2 -0.4 -7.9 -0.5 -0.3 -1 -1.5 -1 -2.6 0 -3 3.8 -2.4 5.1 0.9 1.1 2.7 0.7 10 -0.6 13.5 -0.7 1.6 -0.5 1.6 1.8 0.6 5.4 -2.5 11.7 1.6 11.7 7.7 0 4.6 -1.4 7 -5 8.9 -4.1 2.1 -7.5 1.9 -10.3 -0.7z m9.4 -4 c2.5 -3 2.4 -5.4 -0.3 -7.2 -1.8 -1.3 -2.5 -1.4 -4.2 -0.3 -1.1 0.8 -2.5 2.2 -3.3 3.3 -1.1 1.8 -1 2.3 0.7 4.2 2.6 2.8 4.7 2.8 7.1 0z"/>
  <path d="M470.9 281 c-1.4 -0.4 -5.3 -2 -8.7 -3.5 -5.7 -2.5 -6.2 -3 -6.2 -5.9 0 -1.7 1.5 -21.3 3.4 -43.6 1.8 -22.3 3.1 -42.1 2.9 -44 -0.2 -1.9 0.5 -14.3 1.6 -27.4 1.2 -13.2 2.1 -25.9 2.1 -28.3 0 -3.4 0.4 -4.3 1.8 -4.3 1.5 0 2.2 6 7.4 66.8 5.2 61.8 5.5 67.2 4.2 72.2 -0.8 3 -1.4 8.5 -1.4 12.2 0 6.4 -0.1 6.8 -2.2 6.7 -1.3 0 -3.5 -0.4 -4.9 -0.9z"/>
  <path d="M163.3 264.5 c-6.6 -4.7 -1.7 -16.5 6.9 -16.5 9.8 0 12.2 12.7 3.2 16.5 -4.6 1.9 -7.4 1.9 -10.1 0z m10 -5.3 c2.1 -1.9 2.2 -3 0 -5.4 -2.9 -3.2 -6.9 -2 -8.6 2.6 -1 2.6 2 5.8 4.7 5 1.2 -0.4 2.9 -1.3 3.9 -2.2z"/>
  <path d="M196 249.1 c0 -1.2 3.9 -3.5 4.6 -2.8 0.3 0.2 -0.7 1.2 -2.1 2.1 -1.4 0.9 -2.5 1.2 -2.5 0.7z"/>
  <path d="M132 233.4 c0 -1 -0.9 -3.4 -2.1 -5.3 -1.4 -2.3 -1.7 -3.7 -1 -4.4 0.7 -0.7 1.3 -0.3 1.9 1.2 0.5 1.5 1.8 -9.6 3.6 -32.1 1.5 -18.8 2.9 -35.5 3.2 -37 0.8 -4.1 3.4 -3.6 3.4 0.7 0 7.3 -2.3 29 -3.1 29.6 -0.5 0.3 -1.8 11.3 -2.9 24.4 -1.2 13.2 -2.3 24.1 -2.5 24.4 -0.3 0.2 -0.5 -0.4 -0.5 -1.5z"/>
  <path d="M166 231.2 c-4.2 -4.2 -4.1 -8.3 0.4 -12.8 4.5 -4.5 8.6 -4.6 12.8 -0.4 2.6 2.7 3 3.6 2.5 6.7 -0.8 4.7 -4.3 8.2 -9 9 -3.1 0.5 -4 0.1 -6.7 -2.5z m9.4 -3.9 c2.4 -2.4 2.8 -5.2 0.9 -7.2 -0.4 -0.6 -7.3 -0.5 -7.8 0.1 -0.2 0.2 -0.7 2.2 -1.1 4.5 -0.6 3.8 -0.4 4.2 1.7 4.6 1.3 0.2 2.7 0.5 3 0.6 0.4 0 1.8 -1.1 3.3 -2.6z"/>
  <path d="M502.8 199.2 c-1.8 -0.3 -2.1 -1.2 -3.3 -8.7 -0.6 -3.6 -1.8 -5.4 -3.7 -5.5 -0.3 0 -0.9 1.8 -1.3 4.1 -0.4 2.3 -1.2 3.8 -1.8 3.6 -2.4 -0.7 -5.9 -7.2 -5.4 -9.9 0.2 -1.9 -0.1 -2.8 -1 -2.8 -0.7 0 -1.3 -1.1 -1.3 -2.6 0 -2.2 0.2 -2.4 1.5 -1.4 0.8 0.6 2 1 2.7 0.7 0.9 -0.4 0.8 -0.6 -0.3 -0.6 -2.8 -0.2 -4.2 -2.8 -3.5 -6.4 0.9 -4.9 6.3 -12.4 10.1 -14.3 3.2 -1.5 3.4 -1.4 5.8 1 1.5 1.4 3.2 2.6 3.9 2.6 0.7 -0.1 0.1 -0.7 -1.3 -1.5 -1.5 -0.8 -2.9 -2.1 -3.3 -3 -0.9 -2.4 2.2 -3 5.4 -1.1 3.7 2.1 5 2 5 -0.4 0 -2.6 1 -2.5 4.6 0.2 l2.9 2.2 -2 -2.4 c-1.8 -2.1 -1.9 -2.3 -0.2 -1.7 1 0.4 2.3 0.7 2.7 0.7 0.5 0 2.2 1.2 3.7 2.6 1.5 1.4 4.1 3.7 5.6 5 2.6 2.2 5.7 6.9 5.7 8.7 0 0.4 -1.5 0.8 -3.2 0.8 l-3.3 0.2 3.5 0.6 c2.6 0.4 3.6 1.2 3.8 2.9 0.6 4 -2.6 2.5 -10.3 -4.8 -4.1 -3.8 -8 -7 -8.7 -7 -0.7 0 -0.4 0.5 0.7 1.1 1.1 0.6 4.6 3.8 7.7 7 3.1 3.2 6.8 6.1 8.3 6.5 3.6 0.9 3.2 3.4 -0.5 3.4 -1.6 0 -3 0.5 -3 1 0 0.6 1.1 1 2.5 1 2.9 0 3 0.6 0.9 4.8 -1.6 3.4 -2.4 3.8 -3.9 2.3 -0.6 -0.5 -4.4 -1.9 -8.5 -3.1 -8.5 -2.5 -12.4 -4.9 -15.1 -9.4 -1.2 -2 -1.9 -2.5 -1.9 -1.4 0 3.5 6.7 8.6 14.3 10.9 3.9 1.2 8.5 2.8 10.1 3.7 l2.9 1.4 -3.3 2.9 c-3.8 3.3 -4.3 3.5 -6 1.3 -3.7 -4.4 -8.1 -3.6 -7.9 1.5 0.1 2.6 0.1 2.6 0.8 -0.3 0.8 -3.9 2.3 -4.2 5.7 -1.3 2.7 2.3 2.7 2.5 0.8 3.4 -1 0.6 -3.9 1.4 -6.3 1.8 l-4.3 0.7 0.4 -6.6 c0.3 -5.2 0.1 -6.6 -1 -6.6 -1.2 0 -1.3 1.2 -0.7 6.5 0.7 7.1 0.7 7 -5.7 5.7z m-1.5 -17 c-1.1 -1.5 -2.9 -2.7 -3.9 -2.8 -1.8 -0.1 -1.8 -0.1 -0.1 0.3 1.1 0.3 2.6 1.7 3.5 3.3 0.9 1.6 1.9 2.7 2.1 2.4 0.3 -0.2 -0.4 -1.7 -1.6 -3.2z m25.2 -3.4 c-8.5 -8.8 -9.5 -9.5 -14.2 -11.4 -4 -1.5 -4.4 -1.5 -6.8 0 -1.4 0.9 -2.5 2.4 -2.4 3.4 0 1.3 0.2 1.2 0.9 -0.5 0.5 -1.2 1.8 -2.4 3 -2.8 3.1 -1 10.4 3 15.1 8.3 3.6 4.1 3.8 4.7 2.2 5.3 -1.6 0.7 -1.6 0.8 0.3 0.8 1.1 0.1 2.9 0.8 4 1.6 4.5 3.4 3.4 1.1 -2.1 -4.7z m-9.6 -1.5 c-1.8 -2.1 -3.4 -3.9 -3.4 -4 0 -0.1 -1.2 -0.4 -2.7 -0.8 -2.3 -0.6 -2.6 -0.4 -2.1 1.4 0.3 1.2 1.1 2.1 1.9 2.1 0.7 0 1.7 0.6 2.1 1.4 0.6 1 4.8 3.1 7.2 3.5 0.3 0.1 -1.1 -1.6 -3 -3.6z m-17.9 -3.9 c0 -2.1 -0.4 -3.3 -1 -2.9 -1.7 1 -1.1 6.5 0.7 6.5 0.2 0 0.3 -1.6 0.3 -3.6z m33 -7.8 c0 -0.2 -1.3 -0.6 -2.9 -0.8 -1.7 -0.2 -2.8 -0.1 -2.5 0.4 0.5 0.8 5.4 1.2 5.4 0.4z"/>
  <path d="M148.6 180.3 c-0.9 -5.7 -0.7 -9.3 0.5 -9.3 0.5 0 0.8 -0.4 0.4 -0.9 -0.3 -0.6 -0.3 -4.6 0.1 -9 l0.7 -8.1 3.4 0 3.4 0 -0.1 8.3 c-0.1 4.5 0.2 10.8 0.6 14 0.5 4 0.3 5.7 -0.5 5.7 -0.6 0 -1.1 0.7 -1.1 1.5 0 1 -1 1.5 -3.4 1.5 -3.1 0 -3.4 -0.3 -4 -3.7z"/>
  <path d="M178 152.6 c0 -0.8 1.3 -1.7 3 -2.1 5.8 -1.3 7 -4.3 7 -17.6 0 -11.2 0.1 -11.9 2 -11.9 1.9 0 2 0.7 2 12 0 17 -2 21 -10.4 21 -2.4 0 -3.6 -0.5 -3.6 -1.4z"/>
  <path d="M64.4 120.5 c-2.5 -2.3 -2.5 -2.5 -0.6 -2.5 1.8 0 1.9 -0.5 1.5 -3.9 -0.5 -3.3 -0.1 -4.4 2 -6.5 3.2 -3.2 6.5 -3.3 10.2 -0.5 2.3 1.9 2.6 2.8 2.3 6.5 -0.3 3.7 0 4.4 1.4 4.4 1 0 1.8 0.4 1.8 1 0 1.8 -5.9 4 -10.9 4 -3.9 0 -5.6 -0.5 -7.7 -2.5z m12.8 -3.2 c1.1 -1 1.5 -2.7 1.3 -5 -0.3 -3.8 -2 -5.6 -4.7 -4.9 -0.9 0.2 -1.8 0 -2 -0.6 -0.2 -0.5 -1.6 0 -3 1.2 -2.1 1.6 -2.6 2.7 -2.3 5.1 0.2 1.7 0.9 3.7 1.5 4.4 1.5 1.8 7 1.6 9.2 -0.2z"/>
  <path d="M70.6 113.4 c-1.7 -1.2 -1.8 -1.4 -0.3 -1.4 0.9 0 1.7 -0.8 1.8 -1.7 0 -1.4 0.2 -1.5 0.6 -0.3 0.3 0.8 1 1.8 1.5 2.1 0.5 0.3 0.3 1.1 -0.4 1.7 -1 0.7 -1.8 0.6 -3.2 -0.4z"/>
  <path d="M54.2 93.3 l0.3 -5.8 5.8 -0.3 c5.5 -0.3 5.7 -0.2 5.7 2.3 0 2.4 0.2 2.5 6.5 2.5 6.3 0 6.5 -0.1 6.5 -2.5 0 -2.2 0.4 -2.5 3.5 -2.5 1.9 0 3.5 0.5 3.5 1 0 0.6 0.7 1 1.5 1 0.8 0 1.5 0.7 1.5 1.5 0 0.8 0.5 1.5 1 1.5 0.6 0 1 1.6 1 3.5 0 1.9 -0.4 3.5 -1 3.5 -0.5 0 -1 -0.7 -1 -1.5 0 -1.3 -2.4 -1.5 -16 -1.5 -13.6 0 -16 0.2 -16 1.5 0 0.8 -0.7 1.5 -1.5 1.5 -1.3 0 -1.5 -1.1 -1.3 -5.7z m7.9 -3 c-0.9 -1.6 -1 -1.4 -1.1 1.2 0 2.1 0.3 2.6 1.1 1.8 0.8 -0.8 0.8 -1.6 0 -3z m22.9 0.6 c0 -1 -0.4 -1.9 -1 -1.9 -0.5 0 -1 1.2 -1 2.6 0 1.4 0.4 2.3 1 1.9 0.6 -0.3 1 -1.5 1 -2.6z"/>
 </g>
 <g fill="#3fc950">
  <path d="M501.5 410.5 c-3.7 -2 -7.5 -5.5 -7.5 -6.9 0 -0.6 -1.2 -2.4 -2.6 -4.1 -2.6 -3 -2.6 -3.2 -2 -13.8 0.6 -10.3 0.5 -11 -1.9 -15.1 -2.8 -4.7 -3.4 -12.1 -1.3 -15.9 0.7 -1.2 1.2 -5.3 1.3 -9.2 l0 -7 3.7 -2 c2.1 -1.1 4.7 -3.2 5.8 -4.7 l2.1 -2.8 -3 0 c-2 0 -3.1 -0.5 -3.1 -1.4 0 -1.7 3.1 -2.6 8.8 -2.6 l4.3 0 -1.5 -2.8 c-1.7 -3.3 -8.3 -9.5 -12.3 -11.5 -1.5 -0.8 -7.5 -2.9 -13.2 -4.7 -9.9 -3 -10.8 -3.5 -16.6 -9.4 -5.9 -5.9 -10.7 -14.1 -12 -20.1 -0.3 -1.9 0.1 -1.2 1.3 1.7 2.4 5.7 5.3 10 10.6 15.6 4.8 5.1 7.5 6.6 17.7 10.2 l7.6 2.6 -3.3 -4.7 c-3.8 -5.2 -6.4 -11.9 -6.3 -15.8 0.1 -1.9 0.4 -1.5 1.3 1.9 2.5 9 5.2 12.4 19 24.4 3.7 3.2 7.5 7.4 8.4 9.2 0.8 1.9 1.9 3.4 2.4 3.4 2.5 0 -1.1 -10.5 -6.9 -19.9 -4.6 -7.3 -8.3 -17.1 -8.3 -21.7 0 -4 1.8 -2.7 2.5 1.9 1 5.9 3.2 11 8.2 19.1 7.8 12.7 9.3 22.4 3.5 22.7 -2.5 0.2 -2.5 0.2 -0.4 0.6 1.3 0.3 3.4 -0.3 4.7 -1.1 1.3 -0.9 3.5 -1.6 4.9 -1.6 2.8 0 5.8 -5.2 7.7 -13.7 0.7 -2.9 1.7 -5.3 2.2 -5.3 1.6 0 -0.2 7.8 -3.1 13.3 -1.5 2.9 -2.8 5.5 -3 5.8 -0.1 0.4 3.8 1 8.7 1.3 l9 0.7 1.3 3.7 c0.9 2.5 1.3 8.7 1.2 18.7 0 13.3 -0.4 16 -2.8 23.9 -4.9 16.3 -12.8 29.7 -20.6 35.1 -5 3.5 -12.1 4.3 -16.5 2z"/>
  <path d="M322 378.7 c0 -1.5 3.7 -5.9 11.8 -14 10.1 -10.1 12.2 -11.7 15 -11.7 2.3 0 3.2 0.5 3.2 1.6 0 1.1 -0.6 1.5 -2 1.1 -1.1 -0.3 -1.8 -0.2 -1.5 0.2 0.5 1 -23.8 25.1 -25.3 25.1 -0.7 0 -1.2 -1 -1.2 -2.3z"/>
  <path d="M476.6 365.8 c-1 -3.8 -0.7 -4.8 1.4 -4.8 1.6 0 2 0.7 2 3.5 0 4 -2.4 4.9 -3.4 1.3z"/>
  <path d="M344 348.8 c0 -0.7 -5.2 -6.4 -11.5 -12.8 -6.3 -6.4 -11.5 -12.4 -11.5 -13.3 0 -2.2 2.8 -4.7 5.3 -4.7 1.4 0 6.2 4 13.9 11.7 l11.8 11.8 8.3 -8.3 c6.2 -6.2 8.9 -8.2 10.9 -8.2 2.6 0 4.8 2.3 4.8 5 0 1.8 -15.1 17 -16.2 16.4 -0.5 -0.3 -0.8 0.2 -0.6 1.1 0.5 3 -1.6 2.7 -3.4 -0.5 -1 -1.7 -2.5 -3 -3.6 -3 -2 0 -5.2 2.9 -5.2 4.8 0 0.7 -0.7 1.2 -1.5 1.2 -0.8 0 -1.5 -0.5 -1.5 -1.2z"/>
  <path d="M484 327.4 c0 -2 0.4 -2.5 1.6 -2 0.9 0.3 2.4 0.6 3.5 0.6 1.2 0 1.9 0.7 1.9 2 0 1.6 -0.7 2 -3.5 2 -3.1 0 -3.5 -0.3 -3.5 -2.6z"/>
  <path d="M524 290.6 c-1.4 -5.1 -1.9 -9.2 -1.5 -10.3 0.8 -1.7 0.8 -1.7 1.3 0.2 0.5 2.4 2.2 4.5 2.2 2.7 0 -2.1 8.8 -6.3 22.6 -10.8 7.6 -2.4 15.1 -5.3 16.9 -6.4 4.5 -2.8 13.6 -12.7 16.9 -18.2 3.7 -6.3 4.5 -6.2 1 0.2 -4.4 8.1 -11.6 16.3 -17.3 19.7 -3 1.8 -11.1 5.1 -18 7.4 -14.1 4.6 -20.7 7.9 -21.6 10.9 -0.3 1 -0.1 3.6 0.4 5.7 1.3 4.6 1.4 7.3 0.2 7.3 -0.4 0 -1.8 -3.8 -3.1 -8.4z"/>
  <path d="M494.4 275.3 c0.9 -7.1 4.7 -14.3 11.4 -21.6 7.2 -8.1 10.5 -14.4 12.8 -24.6 2 -8.9 3.2 -7.9 1.4 1.2 -1.7 8.8 -6 17.2 -12.7 24.8 -6.2 6.8 -9.6 13.5 -10.8 20.7 -1 5.9 -3 5.5 -2.1 -0.5z"/>
  <path d="M522 272.1 c0 -2.6 5 -18.4 5.6 -17.8 0.3 0.2 0.1 1.5 -0.4 2.8 -0.5 1.3 -1.5 5.7 -2.2 9.7 -0.6 3.9 -1.6 7.2 -2.1 7.2 -0.5 0 -0.9 -0.9 -0.9 -1.9z"/>
  <path d="M193.3 223.4 c-4.7 -2 -4.1 -3.5 0.7 -1.7 2.2 0.9 4 2 4 2.5 0 1.1 -0.8 0.9 -4.7 -0.8z"/>
  <path d="M175.5 218.5 c-2.4 -1.9 -2.6 -2.4 -1.2 -2.5 2.5 0 5.3 1.6 6.1 3.5 0.8 2.3 -1.5 1.8 -4.9 -1z"/>
  <path d="M520.3 216.5 c0 -2.7 0.2 -3.8 0.4 -2.2 0.2 1.5 0.2 3.7 0 5 -0.2 1.2 -0.4 0 -0.4 -2.8z"/>
  <path d="M178.8 216.2 c-2.6 -1.5 -3.7 -3.2 -2.2 -3.2 0.9 0 7.4 4.1 7.4 4.6 0 0.9 -2.7 0.2 -5.2 -1.4z"/>
  <path d="M166.5 206 c-1.6 -1.6 -3.7 -3 -4.8 -3 -1.2 0 -1.7 -0.6 -1.5 -1.7 0.3 -1.6 1.9 -1.8 13.3 -2.1 14.1 -0.3 15.8 0 14.9 2.3 -0.5 1.2 -2.6 1.5 -11 1.5 -5.7 0 -10.4 0.3 -10.4 0.7 0 0.4 1 1.7 2.2 3 1.2 1.3 1.7 2.3 1.2 2.3 -0.6 0 -2.3 -1.3 -3.9 -3z"/>
  <path d="M202 201 c0 -1.9 0.7 -2 14 -2 13.3 0 14 0.1 14 2 0 1.9 -0.7 2 -14 2 -13.3 0 -14 -0.1 -14 -2z"/>
  <path d="M243 201 c0 -1.9 0.7 -2 14 -2 13.3 0 14 0.1 14 2 0 1.9 -0.7 2 -14 2 -13.3 0 -14 -0.1 -14 -2z"/>
  <path d="M284.7 201 c0.5 -1.9 1.4 -2 14.4 -2 13.2 0 13.9 0.1 13.9 2 0 1.9 -0.7 2 -14.4 2 -13.9 0 -14.4 -0.1 -13.9 -2z"/>
  <path d="M326 201 c0 -1.9 0.7 -2 14 -2 13.3 0 14 0.1 14 2 0 1.9 -0.7 2 -14 2 -13.3 0 -14 -0.1 -14 -2z"/>
  <path d="M367.4 201.4 c0.3 -0.9 0.6 -1.8 0.6 -2 0 -0.2 6.3 -0.4 14 -0.4 13.3 0 14 0.1 14 2 0 1.9 -0.7 2 -14.6 2 -12.9 0 -14.5 -0.2 -14 -1.6z"/>
  <path d="M409 201 c0 -1.9 0.7 -2 14 -2 13.3 0 14 0.1 14 2 0 1.9 -0.7 2 -14 2 -13.3 0 -14 -0.1 -14 -2z"/>
  <path d="M157.5 193 c-2.4 -5.4 -1.2 -6.3 1.4 -1.1 2.3 4.5 2.5 5.1 1.3 5.1 -0.5 0 -1.7 -1.8 -2.7 -4z"/>
  <path d="M151.9 185.3 c-1.7 -0.4 -2.9 -5 -2.9 -11.5 0 -3.7 0.1 -3.8 3.4 -3.8 3.3 0 3.5 0.2 4.5 5 0.6 2.8 1.1 6.2 1.1 7.5 0 1.3 0.6 2.6 1.3 2.8 1.5 0.6 -5.1 0.6 -7.4 0z"/>
  <path d="M149 161.5 l0 -7.5 3.5 0 3.5 0 0 7.5 0 7.5 -3.5 0 -3.5 0 0 -7.5z"/>
  <path d="M150 152 c0 -0.5 1.8 -1 4.1 -1 2.4 0 3.8 0.4 3.4 1 -0.3 0.6 -2.2 1 -4.1 1 -1.9 0 -3.4 -0.4 -3.4 -1z"/>
  <path d="M153.5 146.5 c0.3 -2.2 1.1 -4.4 1.7 -5 0.7 -0.7 0.8 0.2 0.3 3 -0.3 2.2 -1.1 4.5 -1.7 5 -0.7 0.7 -0.8 -0.2 -0.3 -3z"/>
  <path d="M162.5 140.5 c-1.9 -1.5 -2.4 -2.4 -1.5 -2.4 1.5 0 6 3.2 6 4.3 0 1.2 -1.6 0.5 -4.5 -1.9z"/>
  <path d="M145.4 138.5 c1.1 -0.8 2.9 -1.5 4 -1.5 1.9 0.1 1.9 0.2 -0.4 1.5 -3.5 2 -6.2 1.9 -3.6 0z"/>
  <path d="M161 132.5 c0 -0.5 5.5 -3.5 6.5 -3.5 1.5 0 0.2 1.8 -2 2.8 -2.7 1.3 -4.5 1.5 -4.5 0.7z"/>
  <path d="M147.5 129.5 c-1.6 -1.4 -2.4 -2.5 -1.7 -2.5 1.7 0 6.2 3 6.2 4.1 0 1.5 -1.3 1 -4.5 -1.6z"/>
  <path d="M156.1 126.8 c0 -1.3 0.4 -3.2 0.9 -4.3 0.7 -1.5 0.9 -1 0.9 2.3 0.1 2.3 -0.3 4.2 -0.9 4.2 -0.5 0 -1 -1 -0.9 -2.2z"/>
  <path d="M106.2 121.8 c0.3 -2.3 0.5 -2.3 17.5 -2.6 l17.3 -0.2 0 2.5 0 2.5 -17.6 0 -17.5 0 0.3 -2.2z"/>
  <path d="M107 104.5 l0 -2.5 34.1 0 34 0 -0.3 2.3 -0.3 2.2 -33.7 0.3 -33.8 0.2 0 -2.5z"/>
  <path d="M107 87.5 l0 -2.5 34 0 34 0 0 2.5 0 2.5 -34 0 -34 0 0 -2.5z"/>
 </g>
 <g fill="#0b83b8">
  <path d="M475.6 361.8 c-1 -3.8 -0.7 -4.8 1.4 -4.8 1.6 0 2 0.7 2 3.5 0 4 -2.4 4.9 -3.4 1.3z"/>
  <path d="M342.6 352.9 c1.2 -1.3 1.7 -3.2 1.6 -5.3 -0.4 -3.9 2.5 -6.8 6.8 -7.1 2.3 -0.1 3 0.2 3 1.7 0 1 -0.7 1.8 -1.6 1.8 -2.5 0 -4.3 3.1 -4.4 7.3 0 3.6 -0.1 3.7 -3.7 3.7 -3.6 0 -3.6 0 -1.7 -2.1z"/>
  <path d="M474.5 351 c-0.9 -4 0.3 -9 2.1 -9 1 0 1.4 1.5 1.4 6 0 4.5 -0.4 6 -1.4 6 -0.8 0 -1.7 -1.3 -2.1 -3z"/>
  <path d="M475 338.7 c0 -0.7 0.7 -3.7 1.5 -6.5 1.4 -4.6 1.9 -5.2 5.2 -6.1 2.4 -0.7 4.1 -0.7 4.8 -0.1 0.7 0.6 1.5 0.7 1.8 0.3 0.4 -0.3 0.7 0.1 0.7 1 0 1.1 -1.3 1.8 -4.4 2.2 -4.4 0.7 -4.4 0.7 -5 5.6 -0.5 4 -1 4.9 -2.6 4.9 -1.1 0 -2 -0.6 -2 -1.3z"/>
  <path d="M453.1 306.3 c-0.1 -2.4 0.3 -4.3 0.8 -4.3 1.6 0 1.9 2.5 0.6 5.5 l-1.3 3 -0.1 -4.2z"/>
  <path d="M477.3 276.5 c0 -3.3 0.2 -4.5 0.4 -2.7 0.2 1.8 0.2 4.5 0 6 -0.2 1.5 -0.4 0 -0.4 -3.3z"/>
  <path d="M196 249.2 c0 -0.4 1 -1.3 2.3 -2.1 1.2 -0.8 3.3 -2.1 4.7 -3 2.3 -1.5 2.4 -1.4 1.2 0.1 -1.6 2 -8.2 6 -8.2 5z"/>
  <path d="M210.4 239.5 c1.1 -0.8 2.2 -1.2 2.5 -0.9 0.6 0.6 -1.9 2.4 -3.4 2.4 -0.5 -0.1 -0.1 -0.7 0.9 -1.5z"/>
  <path d="M148.5 176.9 c-0.8 -7 -0.1 -8.2 4.6 -7.7 3.3 0.3 3.4 0.5 4.3 6.1 1.1 6.6 0.4 7.7 -5.1 7.7 -3.1 0 -3.1 -0.1 -3.8 -6.1z m6 2.8 c-0.1 -1.3 -0.5 -2.9 -0.9 -3.5 -0.4 -0.7 -0.5 -2.1 -0.1 -3 0.6 -1.6 0.5 -1.6 -1.1 0 -1.4 1.4 -1.5 2 -0.5 3.2 0.7 0.9 1.1 2.2 0.8 3 -0.3 0.8 -0.3 1.7 0 2 1.2 1.2 1.9 0.6 1.8 -1.7z"/>
  <path d="M149.2 162.1 c-0.8 -0.5 -1.2 -2.3 -1 -4.7 0.3 -3.8 0.4 -3.9 4.3 -3.9 l4 0 0.3 4.8 c0.2 3.6 0 4.7 -1.1 4.7 -1.7 0 -3.1 -4.5 -2.1 -6.2 0.4 -0.7 0.3 -0.8 -0.4 -0.4 -0.7 0.4 -1.2 2 -1.2 3.7 0 3 -0.6 3.4 -2.8 2z"/>
  <path d="M66 122.7 c-2.9 -1.4 -4 -4.7 -1.6 -4.7 0.9 0 1.6 -0.4 1.6 -1 0 -0.5 0.9 -0.1 2 1 1.9 1.9 4.4 2.1 9.8 0.5 1.9 -0.6 2.2 -0.4 2.2 1.8 0 1.4 -0.7 2.8 -1.6 3.1 -2.7 1 -9.8 0.6 -12.4 -0.7z"/>
  <path d="M88.6 96.5 c-0.3 -0.8 -1.2 -1.5 -1.9 -1.5 -0.9 0 -1.4 -1.3 -1.5 -3.5 -0.1 -3.4 0 -3.5 3.3 -3.5 l3.5 0 0 5 c0 3.6 -0.4 5 -1.4 5 -0.8 0 -1.6 -0.7 -2 -1.5z"/>
 </g>
 <g fill="#004ee9">
  <path d="M339 408.5 c-17.7 -4 -33.9 -16.6 -41.9 -32.6 -2.3 -4.5 -4.1 -8.8 -4.1 -9.5 0 -1.2 -11.7 -1.4 -74.5 -1.4 -65.6 0 -74.5 0.2 -74.5 1.5 0 0.8 -0.9 1.5 -2 1.5 -1.7 0 -2 -0.7 -2 -4 0 -2.9 0.4 -4 1.5 -4 0.8 0 1.5 0.7 1.5 1.5 0 1.3 9 1.5 74.6 1.5 l74.6 0 -0.6 -2.7 c-1.4 -7.7 -1.6 -12.5 -0.6 -19.1 2.2 -15.6 8.5 -27.9 19.6 -38 32.5 -29.8 85.1 -16.3 99.6 25.6 2 5.7 2.3 8.7 2.3 20.5 l0 13.7 11.9 0 c13.6 0 17.6 -1.4 22.2 -8.1 2.3 -3.3 2.8 -5.5 3.9 -17.9 0.8 -7.7 1.7 -18.8 2.1 -24.6 0.4 -5.8 1.1 -10.1 1.5 -9.7 0.5 0.5 -0.1 11.3 -1.2 24.2 -2.2 25.6 -3.1 28.8 -9.2 33.5 -4.4 3.3 -10.2 4.5 -22.4 4.6 l-10.1 0 -1.2 3.8 c-5.3 16.5 -22.1 32.7 -40 38.3 -8.6 2.7 -22.5 3.3 -31 1.4z m26.4 -7.5 c10.1 -2.6 17.7 -6.9 25.1 -14.4 10.4 -10.6 15.5 -23.1 15.5 -38.1 0 -28.9 -21.4 -52 -50.1 -54.2 -16.2 -1.2 -30.7 4.3 -42.4 16.1 -11.1 11.1 -15.7 22.4 -15.7 38.1 0 14.3 4.2 25.6 13.5 36.1 13.8 15.4 34 21.6 54.1 16.4z"/>
  <path d="M343.2 356.8 c-1.6 -1.6 -1.5 -3.7 0.1 -4.4 0.9 -0.3 1.3 -1.8 1.2 -4.1 -0.2 -2.4 0.4 -4.2 1.7 -5.5 2.1 -2.1 8.8 -3.3 8.8 -1.6 0 0.5 0.4 0.7 0.9 0.3 1.6 -0.9 3.9 3.4 3.5 6.6 -0.7 6 -4.3 8.9 -9.4 7.6 -1.1 -0.3 -2.1 0.1 -2.4 0.9 -0.7 1.7 -2.8 1.8 -4.4 0.2z"/>
  <path d="M105 352.5 c0 -1 -1 -1.5 -3.4 -1.5 -3.5 0 -4.6 -1.2 -3.8 -4.2 0.4 -1.5 0.8 -1.4 4.1 0.7 2 1.3 5.1 2.6 6.9 3 4.4 0.9 4.3 3.5 -0.3 3.5 -2.4 0 -3.5 -0.5 -3.5 -1.5z"/>
  <path d="M115 352.8 c0 -1.1 3.1 -2.3 10.9 -4.2 13.1 -3.1 14.1 -3.2 14.1 -0.7 0 1.6 -1 2 -6.2 2.6 -3.5 0.4 -6.6 1.2 -6.9 1.7 -0.3 0.5 -3.1 1.2 -6.2 1.5 -4.6 0.5 -5.7 0.3 -5.7 -0.9z"/>
  <path d="M157.9 329.1 c-3.5 -2.8 -3.3 -9.2 0.4 -12.8 3.6 -3.7 10 -3.9 12.8 -0.4 6.6 8.1 -5.1 19.8 -13.2 13.2z"/>
  <path d="M87.1 298.5 c-3 -1.4 -3.3 -1.8 -2.7 -4.6 0.5 -2.6 10.5 -28.9 10.9 -28.9 0.1 0 0.2 7.9 0.2 17.5 l0 17.5 -2.5 0 c-1.4 -0.1 -4 -0.7 -5.9 -1.5z"/>
  <path d="M163.1 297.9 c-5.8 -2.4 -6.9 -9.2 -2.2 -14 8.4 -8.3 20.3 2.4 12.4 11 -3.2 3.4 -6.7 4.5 -10.2 3z"/>
  <path d="M132.1 280.3 c-4.4 -3.6 -3.6 -15.6 1.2 -18.7 1.9 -1.2 3.2 -1.2 9.2 0.4 3.9 1.1 9.5 1.9 12.5 1.9 3.1 0.1 6.1 0.6 6.8 1.3 1.4 1.4 1.6 12.6 0.2 14.8 -0.7 1.2 -3.7 1.6 -14.3 1.8 -11.7 0.3 -13.6 0.1 -15.6 -1.5z"/>
  <path d="M456 273.2 c0 -0.6 1.6 -19.7 3.5 -42.3 1.9 -22.7 3.5 -42.1 3.5 -43.1 0 -1.7 -6.3 -1.8 -163 -1.8 l-162.9 0 -0.5 3.3 c-0.3 1.7 -1.2 12 -2.1 22.7 -0.9 10.7 -1.8 19.6 -2 19.9 -0.8 0.7 -0.7 -0.8 2.7 -41.6 l3.2 -39.3 21.9 0 c13.7 0 22.6 -0.4 23.9 -1.1 3.4 -1.8 4.8 -7 4.8 -18.4 l0 -10.5 140.6 0 140.6 0 -0.5 5.8 c-0.3 3.1 -3.1 37.2 -6.3 75.7 -3.1 38.5 -6.1 70.4 -6.6 71 -0.5 0.5 -0.8 0.5 -0.8 -0.3z m-301.5 -93.4 c0 -1.3 -0.3 -2.8 -0.8 -3.5 -0.4 -0.6 -0.4 -1.8 -0.1 -2.7 0.3 -0.9 0.1 -1.6 -0.5 -1.6 -1.8 0 -2.5 2.8 -1.1 4.5 0.6 0.8 0.9 1.9 0.5 2.5 -0.7 1.1 0.2 3 1.4 3 0.4 0 0.7 -1 0.6 -2.2z m-0.5 -19.6 c0 -3.1 -0.4 -4.2 -1.2 -3.9 -0.7 0.2 -1.3 0.9 -1.2 1.5 0.1 0.7 0.2 3.1 0.3 5.5 0.2 5.6 2.1 2.9 2.1 -3.1z"/>
  <path d="M162.7 263.3 c-4.3 -4.9 -0.5 -13.8 6.4 -14.9 7.6 -1.2 12.6 8.4 7.2 13.8 -3.1 3 -11.2 3.7 -13.6 1.1z"/>
  <path d="M129.8 255 c0.2 -1.6 0.6 -3 0.8 -3 0.2 0 0.4 1.4 0.4 3 0 1.7 -0.4 3 -0.8 3 -0.5 0 -0.7 -1.3 -0.4 -3z"/>
  <path d="M166.3 231.5 c-1.1 -0.8 -2.4 -2.6 -2.7 -4 -0.8 -3.2 1.6 -9 4.3 -10.5 2.5 -1.3 11.7 -1 12 0.5 1.5 7.8 1.2 10.1 -1.5 12.8 -3.1 3.1 -8.6 3.7 -12.1 1.2z"/>
  <path d="M129.7 227.7 c-1.1 -2.9 -0.9 -5.3 0.4 -4 0.6 0.6 0.9 2.1 0.7 3.4 -0.3 2.1 -0.4 2.2 -1.1 0.6z"/>
  <path d="M549.7 214.3 c-1.2 -1.2 -0.7 -5 0.8 -6.3 3.2 -2.7 8.2 2.3 5.5 5.5 -1.3 1.5 -5.1 2 -6.3 0.8z"/>
  <path d="M505.6 197.8 c-0.3 -1.3 -0.6 -3.4 -0.6 -4.8 0 -4.1 -2 -10 -4.1 -12.1 -4 -4 -9.4 -1.4 -10.9 5.3 l-0.7 3.3 -1.7 -3.8 c-0.9 -2.1 -1.9 -5.1 -2.2 -6.6 -0.5 -2.6 -0.4 -2.8 2.3 -2.4 3.4 0.5 6 -1.9 6.5 -6.2 0.2 -2.3 1 -3.2 3.3 -3.8 4.5 -1.4 6 -2.3 6.3 -3.9 0.3 -1.6 -3.6 -6.2 -5.9 -7 -0.8 -0.3 -1.1 -0.9 -0.6 -1.3 0.4 -0.5 2 0.3 3.5 1.7 1.5 1.5 5.8 3.5 9.9 4.7 6.2 1.9 7.8 2.9 13 8.2 3.4 3.6 6.9 6.3 8.6 6.6 2.6 0.5 2.8 0.9 2.3 3.6 -0.3 1.6 -0.6 3.3 -0.6 3.8 0 2.5 -3.3 0.2 -9 -6.1 -9.1 -10.4 -16.5 -13.5 -21.1 -8.9 -5.3 5.3 1.9 14.1 14.8 17.9 4.3 1.2 8.6 2.8 9.6 3.5 1.7 1.2 1.6 1.4 -1.3 3.9 l-3.2 2.6 -3 -2.5 c-1.7 -1.5 -4 -2.5 -5.2 -2.3 -1.7 0.2 -2.2 1.1 -2.4 4.6 -0.3 4 -0.4 4.2 -3.6 4.2 -2.6 0 -3.5 -0.5 -4 -2.2z"/>
  <path d="M498 196.9 c-6.9 -4.1 -7.9 -5.6 -6.8 -9.7 1.1 -4 3.4 -7.2 5.3 -7.2 2.6 0 5.6 4.8 6.5 10.6 1.6 9.6 1.3 10 -5 6.3z"/>
  <path d="M514.6 197.5 c-0.7 -2 0.3 -4.5 1.9 -4.5 0.6 0 2 0.9 3.1 2.1 1.6 1.7 1.6 2.2 0.4 2.9 -2.2 1.4 -4.7 1.2 -5.4 -0.5z"/>
  <path d="M526.5 186.9 c-2.2 -1 -6.5 -2.5 -9.6 -3.3 -9.1 -2.5 -15.6 -10.5 -11.7 -14.4 1.6 -1.6 5.3 -1.5 8.6 0.2 1.5 0.8 6.3 5.1 10.7 9.5 8.4 8.6 9.1 11.3 2 8z"/>
  <path d="M486.1 174.1 c-1.7 -3.2 1.6 -11.6 6.3 -16 l2.5 -2.3 3.3 1.9 c4.5 2.6 4.6 6.4 0.2 7.3 -4.5 1 -5.4 1.8 -5.4 4.9 0 2.8 -2.6 6.1 -4.8 6.1 -0.6 0 -1.6 -0.8 -2.1 -1.9z"/>
  <path d="M531 173.5 c-1.4 -0.7 -4.4 -3.5 -6.7 -6.3 -4.3 -5.1 -6 -6 -15.4 -8.6 -3 -0.9 -6.4 -2.5 -7.4 -3.6 -1.7 -1.9 -1.7 -2 0.9 -3 1.5 -0.5 4.4 -1 6.5 -1 3.5 0 4.4 0.7 10.6 7.5 5.9 6.6 7.1 7.5 10.1 7.5 2.8 0 3.6 0.5 4.4 2.6 1.2 3 1.3 6.4 0.3 6.4 -0.5 -0.1 -1.9 -0.7 -3.3 -1.5z"/>
  <path d="M521.3 158.3 c-3.4 -3.7 -6.1 -6.9 -5.9 -7.1 1.1 -1 9.5 4 12.9 7.6 4.3 4.8 4.6 6.2 1.5 6.2 -1.5 0 -4.4 -2.3 -8.5 -6.7z"/>
  <path d="M558.4 163.4 c-11.6 -5.7 -6 -22.8 6.9 -21.1 5.2 0.7 8.7 4.2 9.4 9.4 0.7 5.3 -1.8 10 -6.2 11.9 -4.3 1.8 -6.2 1.7 -10.1 -0.2z"/>
  <path d="M66 121.5 c0 -0.8 -0.7 -1.5 -1.5 -1.5 -0.8 0 -1.5 -0.4 -1.5 -1 0 -1.3 3.7 -1.3 4.5 0 0.4 0.6 1 0.8 1.5 0.5 0.5 -0.3 1.1 -0.1 1.5 0.5 0.8 1.3 4.5 1.3 4.5 -0.1 0 -0.5 0.5 -0.7 1 -0.4 0.6 0.3 1 0.1 1 -0.4 0 -0.6 1.5 -1.1 3.3 -1 1.7 0 2.6 0.3 2 0.6 -0.7 0.2 -1.3 1.1 -1.3 1.8 0 1.9 -2.3 2.5 -9.1 2.5 -4.6 0 -5.9 -0.3 -5.9 -1.5z"/>
  <path d="M302 114.2 c-13.6 -6.8 -8.7 -27.5 6.5 -27.5 8.2 0 14.5 6.3 14.5 14.5 0 7.9 -6.8 14.8 -14.5 14.8 -1.6 0 -4.6 -0.8 -6.5 -1.8z m12.6 -0.8 c7.1 -3.4 9.6 -12.9 5.1 -19.5 -2.8 -4.2 -6 -5.9 -11.2 -5.9 -5.2 0 -8.4 1.7 -11.2 5.9 -7.7 11.4 4.7 25.5 17.3 19.5z"/>
  <path d="M304.6 105.9 c-3.1 -2.5 -3.4 -6.1 -0.6 -8.9 3.9 -3.9 11 -1.1 11 4.4 0 2.5 -4.1 6.6 -6.5 6.6 -0.7 0 -2.4 -0.9 -3.9 -2.1z"/>
  <path d="M54.2 92.8 l0.3 -5.3 18.3 -0.3 18.2 -0.2 0 5.5 c0 3 -0.4 5.5 -1 5.5 -1 0 -1.2 -0.8 -1.2 -5 0 -2.3 0 -2.3 -0.5 -0.2 -0.4 2.1 -0.8 2.2 -13.2 2.2 -12.5 0 -12.7 0 -12.6 -2.2 0 -1.3 -0.4 -2.3 -1 -2.3 -0.5 0 -1 1 -1 2.3 0.1 1.5 -0.5 2.2 -1.7 2.2 -1 0 -1.8 0.7 -1.8 1.5 0 0.8 -0.7 1.5 -1.6 1.5 -1.2 0 -1.4 -1 -1.2 -5.2z m31 -1.3 c-0.5 -2.5 -0.8 -2.9 -2.1 -2 -1.9 1.1 -1.3 4.7 0.7 4.3 1.1 -0.2 1.6 -1.1 1.4 -2.3z"/>
 </g>
 <g fill="#00cb69">
  <path d="M174.5 200 l-14 -0.6 13.7 -0.2 c8.3 -0.1 13.9 0.2 14.3 0.8 0.3 0.6 0.5 0.9 0.3 0.8 -0.2 -0.1 -6.6 -0.5 -14.3 -0.8z"/>
  <path d="M208.8 199.3 c3.9 -0.2 10.5 -0.2 14.5 0 3.9 0.1 0.7 0.3 -7.3 0.3 -8 0 -11.2 -0.2 -7.2 -0.3z"/>
  <path d="M249.8 199.3 c3.9 -0.2 10.5 -0.2 14.5 0 3.9 0.1 0.7 0.3 -7.3 0.3 -8 0 -11.2 -0.2 -7.2 -0.3z"/>
  <path d="M291.8 199.3 c3.9 -0.2 10.5 -0.2 14.5 0 3.9 0.1 0.7 0.3 -7.3 0.3 -8 0 -11.2 -0.2 -7.2 -0.3z"/>
  <path d="M332.8 199.3 c3.9 -0.2 10.5 -0.2 14.5 0 3.9 0.1 0.7 0.3 -7.3 0.3 -8 0 -11.2 -0.2 -7.2 -0.3z"/>
  <path d="M374.8 199.3 c3.9 -0.2 10.5 -0.2 14.5 0 3.9 0.1 0.7 0.3 -7.3 0.3 -8 0 -11.2 -0.2 -7.2 -0.3z"/>
  <path d="M415.8 199.3 c3.9 -0.2 10.5 -0.2 14.5 0 3.9 0.1 0.7 0.3 -7.3 0.3 -8 0 -11.2 -0.2 -7.2 -0.3z"/>
  <path d="M151.3 162.5 c0 -2.2 0.2 -3 0.4 -1.7 0.2 1.2 0.2 3 0 4 -0.3 0.9 -0.5 -0.1 -0.4 -2.3z"/>
  <path d="M65.7 128.6 c-16.9 -4.6 -23.4 -26.3 -11.8 -39.7 15.1 -17.7 43.1 -7.3 43.1 16 0 11.3 -6.7 20.5 -17.4 23.6 -5.9 1.8 -7.6 1.8 -13.9 0.1z m10.9 -9.1 c1 -0.8 3.8 -1.5 6 -1.5 2.3 0 4.7 -0.6 5.3 -1.4 1.4 -1.7 1.4 -25.3 -0.1 -26.2 -0.7 -0.5 -14.9 -0.7 -29.1 -0.4 -1.6 0 -1.7 1.1 -1.5 13.8 l0.3 13.7 4.2 0.3 c2.4 0.2 5.5 1 7 1.8 3.5 1.8 5.4 1.8 7.9 -0.1z"/>
  <path d="M106.4 121.5 c0.1 -1.9 0.8 -2 17.4 -2 l17.2 -0.1 -16.9 0.3 c-15.1 0.3 -17 0.5 -17.4 2.1 -0.3 1.2 -0.4 1.2 -0.3 -0.3z"/>
  <path d="M140.2 106.3 c31 -0.3 33.7 -0.5 34.1 -2.1 0.3 -1.3 0.4 -1.2 0.3 0.3 -0.1 2 -0.8 2 -34.1 2 l-34 0 33.7 -0.2z"/>
 </g>
 <g fill="#53585d">
  <path d="M89.8 482.3 c-4.4 -0.5 -5.1 -2.3 -3.9 -10.4 0.2 -1 14.1 -0.4 14.1 0.6 0 0.6 2.6 2.5 5.6 4.4 3.1 1.8 5.2 3.7 4.7 4.1 -1 0.9 -15.2 1.8 -20.5 1.3z"/>
  <path d="M134.8 482.3 c-4.3 -0.5 -5.1 -2 -4.2 -7.8 l0.6 -4.1 6.4 0 c4.7 0 6.4 0.3 6.4 1.3 0 0.7 1.1 1.8 2.5 2.3 6.7 2.5 13.6 6.3 12.8 7 -1 0.9 -19.2 1.9 -24.5 1.3z"/>
  <path d="M140 366.5 c0 -4.9 2.3 -6.4 3.4 -2.2 1.2 4.4 0.7 6.7 -1.4 6.7 -1.7 0 -2 -0.7 -2 -4.5z"/>
  <path d="M97.1 354.1 c0.1 -3.2 0.5 -6.5 0.9 -7.1 1.6 -2.7 3 0.4 3 6.6 0 5.7 -0.2 6.4 -2 6.4 -1.8 0 -2 -0.6 -1.9 -5.9z"/>
  <path d="M139 353.5 c0 -4.9 2.3 -6.4 3.4 -2.2 1.2 4.4 0.7 6.7 -1.4 6.7 -1.7 0 -2 -0.7 -2 -4.5z"/>
  <path d="M108.1 249.4 c-8.5 -9.7 -10.9 -17.7 -7.3 -24.4 2.3 -4.3 10.8 -9 16.4 -9 6.9 0 13.8 5.6 13.8 11.2 -0.1 2.3 -0.1 2.3 -1.8 -0.5 -0.9 -1.5 -1.9 -2.7 -2.3 -2.7 -0.3 0 -1.4 1.7 -2.3 3.9 -1.7 3.5 -1.7 4.1 -0.2 6.9 2.2 4.2 0.1 5.4 -2.8 1.7 -1.3 -1.7 -2.8 -2.5 -3.4 -2.1 -1.8 1.1 -1.4 3.3 0.9 5.5 1.9 1.7 2 2.4 1 5.2 -0.6 1.8 -1.1 4.3 -1.1 5.5 0 2.1 -0.5 2.4 -3.9 2.4 -3.2 0 -4.4 -0.6 -7 -3.6z m7.9 -3.9 c0 -1.9 -0.4 -3.5 -1 -3.5 -0.5 0 -1 -1.6 -1 -3.5 0 -2.4 0.5 -3.5 1.5 -3.5 0.8 0 1.5 -0.9 1.5 -2 0 -1.1 0.7 -2 1.5 -2 0.9 0 1.5 -0.9 1.5 -2.2 0 -2.6 1 -4.3 2.7 -4.9 0.8 -0.3 0.8 -0.9 -0.2 -2.3 -1.2 -1.6 -2.2 -1.8 -7.9 -1.1 -4.6 0.4 -6.6 1.1 -6.6 2 0 0.8 -0.9 2 -1.9 2.7 -1.1 0.8 -2.3 2.6 -2.7 4.2 -0.7 2.9 1.3 10.6 2.8 10.6 0.4 0 0.8 0.8 0.8 1.9 0 1 0.9 2.1 2 2.4 1.2 0.3 2 1.4 2 2.6 0 1.6 0.6 2.1 2.5 2.1 2.2 0 2.5 -0.4 2.5 -3.5z"/>
 </g>
 <g fill="#219605">
  <path d="M496.8 407 c-8.5 -7.4 -14.7 -19.9 -19.3 -38.4 -1.8 -7.6 -2.5 -13 -2.5 -20.2 0 -8.7 1.8 -19.5 3.4 -21.2 0.4 -0.3 5.2 -0.7 10.9 -0.9 11.2 -0.4 16.7 -1 16.7 -2 0 -1.8 -5.6 -8.4 -9.4 -11.1 -2.4 -1.8 -9.5 -4.9 -15.9 -7 -7.2 -2.4 -12.9 -5 -15.5 -7 -4 -3.2 -12.2 -14.4 -12.2 -16.6 0.1 -0.6 0.8 0.3 1.7 1.9 2.6 5 8.3 11.5 12.4 14.2 2.1 1.4 8.2 4 13.4 5.8 l9.6 3.3 -3.5 -3.8 c-3.2 -3.6 -6.6 -9 -6.6 -10.6 0 -0.3 1.5 1.5 3.3 4.2 1.7 2.7 7.2 8.1 12 12.2 5.1 4.3 9.6 9 10.8 11.3 1 2.1 2.4 3.9 2.9 3.9 2.2 0 0.8 -6.2 -3.1 -13.6 -2.3 -4.4 -5.4 -10.4 -7 -13.4 -4 -7.7 -5.4 -15.8 -3.9 -23.4 1.6 -8.2 4.7 -13.8 11.9 -22 3.3 -3.7 7 -9 8.2 -11.7 1.3 -2.7 2.4 -4.7 2.7 -4.5 1.1 1.2 -5.1 11.9 -10.3 17.6 -8.6 9.6 -11 15.4 -11 26.5 0 9.7 1.1 12.8 10 28 1.9 3.3 4 8.4 4.6 11.3 1 4.2 1.6 5.2 3.3 5.2 4.2 0 5 1.6 2 3.9 -1.9 1.5 -4.1 2.1 -7.7 2.1 -4.4 0 -5.3 0.4 -8.4 3.7 -1.9 2 -4.9 4.4 -6.6 5.2 -3.3 1.7 -3.6 2.8 -2.2 9.7 0.5 2.2 0.1 4 -1.4 6.5 -2.7 4.4 -2.6 6.3 0.5 11.7 2.6 4.4 2.7 4.9 2 15.2 -0.6 10.4 -0.5 10.7 1.9 13.6 1.4 1.6 2.8 4.5 3.1 6.4 0.4 1.9 1.6 4.5 2.7 5.8 3.2 3.5 1.4 2.6 -3.5 -1.8z"/>
  <path d="M320.7 380.3 c-2.2 -2.2 0.1 -5.6 11.3 -16.8 l12 -12 2.2 2.3 2.3 2.2 -12.5 12.5 c-11.9 11.9 -13.8 13.4 -15.3 11.8z"/>
  <path d="M523.1 320 c0 -0.3 0.6 -2.3 1.4 -4.5 2.1 -5.9 1.9 -18.7 -0.5 -27 -2.3 -8.1 -2.5 -14 -0.6 -21 1.2 -4.8 1.3 -4.5 0.8 6.5 l-0.5 11.5 2.9 -2.6 c4.1 -3.7 7 -5.1 22.7 -10.3 14.9 -4.9 20.2 -8 26.7 -15.3 2.4 -2.7 3.3 -3.4 2.2 -1.8 -3.3 5 -11.9 12.4 -16.4 14.4 -2.4 1 -9.6 3.5 -16.1 5.6 -11.6 3.7 -17 6.4 -19 9.6 -0.7 1.2 -0.7 3.8 0.3 8.7 1.5 8.4 0.9 16.4 -1.8 22.3 -1.1 2.4 -2.1 4.2 -2.1 3.9z"/>
  <path d="M520.3 222 c0 -2.5 0.2 -3.5 0.4 -2.2 0.2 1.2 0.2 3.2 0 4.5 -0.2 1.2 -0.4 0.2 -0.4 -2.3z"/>
 </g>
 <g fill="#262e3e">
  <path d="M88.2 474.8 c-1.8 -0.5 -3.1 -1.2 -2.8 -1.6 0.2 -0.4 0.9 -6.1 1.6 -12.7 1.8 -19.3 4.9 -39.7 7.1 -47.6 1.7 -6.3 2.2 -11.9 2.9 -36.7 0.4 -16.1 1 -29.5 1.2 -29.8 0.3 -0.2 2.3 0.6 4.6 1.8 l4.2 2.3 0 43.2 c0 31.5 0.3 43.2 1.1 43.5 0.8 0.3 0.1 4.6 -2.4 13.8 -2 7.4 -4.2 15.9 -4.9 18.8 -0.8 3.5 -1.7 5.2 -2.7 5.3 -0.9 0.1 -2.7 0.2 -4.1 0.3 -1.4 0.1 -4 -0.1 -5.8 -0.6z"/>
  <path d="M131.7 473.3 c-0.3 -0.4 -0.8 -2.7 -1.2 -5 -0.6 -3.9 -0.5 -4.3 1.4 -4.3 1.7 0 2.1 0.6 2.1 3 0 2.9 0.1 3 5.1 3 4.3 0 5 0.3 4.7 1.8 -0.2 1.3 -1.5 1.8 -6 2 -3.1 0.2 -5.8 -0.1 -6.1 -0.5z"/>
  <path d="M109 427.5 c0 -3 0.3 -3.5 2.4 -3.5 2.3 0 2.4 0.2 1.3 3.5 -0.6 1.9 -1.6 3.5 -2.4 3.5 -0.8 0 -1.3 -1.3 -1.3 -3.5z"/>
  <path d="M115 409.5 c0 -2.8 0.4 -3.5 2 -3.5 2.1 0 2.4 1 1.4 4.8 -1 3.6 -3.4 2.7 -3.4 -1.3z"/>
  <path d="M117 400.5 c0 -2.5 0.5 -3.5 1.5 -3.5 1.1 0 1.3 -0.4 0.6 -1.7 -2.1 -3.8 -11.1 -38.2 -11.1 -42.2 0 -1.9 0.6 -2.1 5.3 -2.1 2.8 0 8.2 -0.9 12 -1.9 l6.7 -2 0 2.5 c0 1.9 -0.5 2.4 -2.5 2.4 l-2.5 0 0 25 c0 21.2 -0.2 25 -1.5 25 -0.8 0 -1.7 -1.4 -2.1 -3.5 -0.8 -4.4 -2.4 -5.6 -2.4 -1.8 0 4.3 -1.1 7.3 -2.6 7.3 -0.9 0 -1.4 -1.2 -1.4 -3.5z"/>
  <path d="M141 384.5 c0 -4 2.4 -4.9 3.4 -1.2 1 3.7 0.7 4.7 -1.4 4.7 -1.6 0 -2 -0.7 -2 -3.5z"/>
  <path d="M140 368.5 c0 -4 2.4 -4.9 3.4 -1.2 1 3.7 0.7 4.7 -1.4 4.7 -1.6 0 -2 -0.7 -2 -3.5z"/>
  <path d="M139 355.5 c0 -4 2.4 -4.9 3.4 -1.2 1 3.7 0.7 4.7 -1.4 4.7 -1.6 0 -2 -0.7 -2 -3.5z"/>
  <path d="M111.8 252.3 c-1.6 -0.4 -8.5 -8.8 -10.7 -13 -0.6 -1.2 -1.1 -4.7 -1.1 -7.7 0 -4.8 0.4 -6 3.1 -9.1 3.6 -4.1 12.1 -7.1 17.4 -6.1 3.7 0.7 10.5 7.4 10.5 10.4 0 1.4 -0.4 1.2 -2 -0.8 -1.9 -2.5 -1.9 -2.5 -3.4 -0.5 -2.4 3 -3 6.4 -1.7 9.2 1.6 3.5 0.4 4.3 -1.8 1.4 -1.2 -1.6 -2.4 -2.2 -3.5 -1.8 -2.2 0.8 -2 4 0.3 6.1 1.8 1.6 1.8 2.9 -0.5 11.4 -0.3 1.2 -3.2 1.4 -6.6 0.5z"/>
 </g>
 <g fill="#182439">
  <path d="M134.3 473.2 c-1.8 -0.2 -3.3 -0.6 -3.3 -1 0 -1.5 -5.1 -50.2 -6 -57.7 -1.5 -12.3 -1.3 -65.5 0.3 -65.6 0.6 0 1.9 -0.2 2.7 -0.5 3.6 -1 13.1 -2.6 13.4 -2.3 0.2 0.2 1 7.6 1.7 16.4 1 11.2 1.3 30.2 1.2 62.9 -0.1 25.7 -0.3 46.9 -0.5 47.1 -0.8 0.6 -6.6 1.1 -9.5 0.7z"/>
  <path d="M104.1 402.3 l-0.1 -53.1 3.4 1 c3.4 1.1 3.4 1.1 6.7 14.2 1.8 7.2 4.2 16.5 5.4 20.7 2.1 7 2.2 8 1 15 -0.7 4.1 -3.8 15.1 -6.9 24.5 -3 9.3 -6.4 20.1 -7.5 23.9 l-1.9 7 -0.1 -53.2z"/>
 </g>
</svg>